<svg width="88" height="124" viewBox="0 0 88 124" fill="none" xmlns="http://www.w3.org/2000/svg">
<path d="M86.1564 13.0368H65.0571V9.79304C65.0571 8.82258 64.2316 8.03576 63.2135 8.03576H56.5114C54.4709 3.24513 49.5125 0 44 0C38.4875 0 33.5291 3.24379 31.4872 8.03576H24.7851C23.7669 8.03576 22.9415 8.82258 22.9415 9.79304V13.0368H1.84359C0.825464 13.0368 0 13.8237 0 14.7941V122.243C0 123.213 0.825464 124 1.84359 124H86.1564C87.1745 124 88 123.213 88 122.243V14.7941C88 13.8237 87.1745 13.0368 86.1564 13.0368ZM76.5939 23.9089V113.127H11.4061V23.9089H76.5939ZM32.7979 11.549C33.6205 11.549 34.3419 11.0302 34.5697 10.2769C35.7707 6.29591 39.6477 3.51456 44 3.51456C48.3523 3.51456 52.2294 6.29591 53.4303 10.2783C53.6567 11.0316 54.3795 11.5503 55.2021 11.5503H61.3713V20.3943H26.6301V11.5503L32.7979 11.549ZM84.3128 120.484H3.68717V16.55H22.9429V20.3943H9.56387C8.54575 20.3943 7.72028 21.1812 7.72028 22.1516V114.884C7.72028 115.854 8.54575 116.641 9.56387 116.641H78.4375C79.4557 116.641 80.2811 115.854 80.2811 114.884V22.1516C80.2811 21.1812 79.4557 20.3943 78.4375 20.3943H65.0585V16.55H84.3142L84.3128 120.484ZM17.2631 68.8756H70.7369C71.7551 68.8756 72.5805 68.0888 72.5805 67.1184C72.5805 66.1479 71.7551 65.3611 70.7369 65.3611H69.131V38.7955C69.131 37.825 68.3055 37.0382 67.2874 37.0382H60.9438C59.9257 37.0382 59.1003 37.825 59.1003 38.7955V65.3611H55.7196V42.1773C55.7196 41.2069 54.8942 40.4201 53.8761 40.4201H47.5325C46.5144 40.4201 45.6889 41.2069 45.6889 42.1773V65.3611H42.3083V47.0471C42.3083 46.0766 41.4828 45.2898 40.4647 45.2898H34.1211C33.103 45.2898 32.2775 46.0766 32.2775 47.0471V65.3611H28.8969V54.6231C28.8969 53.6526 28.0715 52.8658 27.0533 52.8658H20.7126C19.6945 52.8658 18.869 53.6526 18.869 54.6231V65.3611H17.2631C16.2449 65.3611 15.4195 66.1479 15.4195 67.1184C15.4195 68.0888 16.2449 68.8756 17.2631 68.8756ZM62.7874 40.5528H65.4438V65.3611H62.7874V40.5528ZM49.3775 43.9346H52.0339V65.3611H49.3775V43.9346ZM35.9661 48.8043H38.6225V65.3611H35.9661V48.8043ZM22.5562 56.3803H25.2126V65.3611H22.5562V56.3803ZM69.131 78.6606C69.131 79.6311 68.3055 80.4179 67.2874 80.4179H20.7126C19.6945 80.4179 18.869 79.6311 18.869 78.6606C18.869 77.6902 19.6945 76.9034 20.7126 76.9034H67.2874C68.3055 76.9034 69.131 77.6902 69.131 78.6606ZM69.131 89.1587C69.131 90.1292 68.3055 90.916 67.2874 90.916H20.7126C19.6945 90.916 18.869 90.1292 18.869 89.1587C18.869 88.1883 19.6945 87.4014 20.7126 87.4014H67.2874C68.3055 87.4014 69.131 88.1883 69.131 89.1587ZM69.131 99.6555C69.131 100.626 68.3055 101.413 67.2874 101.413H20.7126C19.6945 101.413 18.869 100.626 18.869 99.6555C18.869 98.685 19.6945 97.8982 20.7126 97.8982H67.2874C68.3055 97.8982 69.131 98.685 69.131 99.6555Z" fill="#1F1C47"/>
</svg>
