<svg width="832" height="253" viewBox="0 0 832 253" fill="none" xmlns="http://www.w3.org/2000/svg">
<line x1="68" y1="9.75" x2="832" y2="9.75" stroke="#E7EAEE" stroke-width="0.5"/>
<line x1="68" y1="48.75" x2="832" y2="48.75" stroke="#E7EAEE" stroke-width="0.5"/>
<line x1="68" y1="88.75" x2="832" y2="88.75" stroke="#E7EAEE" stroke-width="0.5"/>
<line x1="68" y1="128.75" x2="832" y2="128.75" stroke="#E7EAEE" stroke-width="0.5"/>
<line x1="68" y1="168.75" x2="832" y2="168.75" stroke="#E7EAEE" stroke-width="0.5"/>
<line x1="68" y1="208.75" x2="832" y2="208.75" stroke="#E7EAEE" stroke-width="0.5"/>
<path d="M4.97789 16.379V14.783H6.00689V16.379H4.97789ZM4.97789 5.13V3.527H6.00689V5.13H4.97789ZM5.61489 15.21C4.94756 15.21 4.34556 15.091 3.80889 14.853C3.27689 14.615 2.83589 14.279 2.48589 13.845C2.14056 13.411 1.91422 12.8977 1.80689 12.305L2.80789 12.13C2.96189 12.774 3.29322 13.285 3.80189 13.663C4.31522 14.0363 4.93356 14.223 5.65689 14.223C6.38956 14.223 6.98222 14.0457 7.43489 13.691C7.88756 13.3317 8.11389 12.8627 8.11389 12.284C8.11389 11.8547 7.98789 11.5117 7.73589 11.255C7.48389 10.9983 7.05689 10.779 6.45489 10.597L4.21489 9.897C2.86156 9.47233 2.18489 8.66967 2.18489 7.489C2.18489 6.93833 2.32022 6.45533 2.59089 6.04C2.86622 5.62 3.24656 5.29333 3.73189 5.06C4.22189 4.82667 4.79356 4.71233 5.44689 4.717C6.08622 4.717 6.65789 4.83833 7.16189 5.081C7.67056 5.319 8.08822 5.65733 8.41489 6.096C8.74156 6.53467 8.95856 7.055 9.06589 7.657L8.03689 7.853C7.97156 7.42367 7.81989 7.048 7.58189 6.726C7.34856 6.404 7.04756 6.15433 6.67889 5.977C6.31022 5.795 5.89956 5.70167 5.44689 5.697C5.01756 5.697 4.63489 5.77167 4.29889 5.921C3.96289 6.07033 3.69689 6.278 3.50089 6.544C3.30956 6.80533 3.21389 7.10633 3.21389 7.447C3.21389 7.82033 3.34689 8.13767 3.61289 8.399C3.88356 8.65567 4.31056 8.87267 4.89389 9.05L6.81889 9.631C7.63089 9.87367 8.21656 10.2003 8.57589 10.611C8.93522 11.0217 9.11489 11.57 9.11489 12.256C9.11489 12.8487 8.97022 13.3667 8.68089 13.81C8.39156 14.2533 7.98322 14.5987 7.45589 14.846C6.93322 15.0887 6.31956 15.21 5.61489 15.21ZM10.282 14.993L10.289 14.055L14.846 9.939C15.238 9.58433 15.497 9.24833 15.623 8.931C15.7537 8.609 15.819 8.273 15.819 7.923C15.819 7.50767 15.721 7.132 15.525 6.796C15.329 6.46 15.0654 6.194 14.734 5.998C14.4027 5.79733 14.0317 5.697 13.621 5.697C13.1917 5.697 12.809 5.79967 12.473 6.005C12.137 6.21033 11.871 6.481 11.675 6.817C11.4837 7.153 11.3904 7.51933 11.395 7.916H10.345C10.345 7.30467 10.4897 6.75633 10.779 6.271C11.0684 5.78567 11.4604 5.40533 11.955 5.13C12.4497 4.85 13.0097 4.71 13.635 4.71C14.2464 4.71 14.7947 4.85467 15.28 5.144C15.77 5.42867 16.155 5.816 16.435 6.306C16.7197 6.79133 16.862 7.33267 16.862 7.93C16.862 8.35 16.8107 8.721 16.708 9.043C16.61 9.36033 16.4537 9.65667 16.239 9.932C16.029 10.2027 15.7607 10.4827 15.434 10.772L11.388 14.426L11.227 14.006H16.862V14.993H10.282ZM21.5214 15.21C20.9987 15.21 20.5157 15.1027 20.0724 14.888C19.6291 14.6733 19.2511 14.377 18.9384 13.999C18.6257 13.621 18.4017 13.187 18.2664 12.697L19.2534 12.431C19.3421 12.795 19.5031 13.11 19.7364 13.376C19.9697 13.6373 20.2427 13.8403 20.5554 13.985C20.8727 14.1297 21.2041 14.202 21.5494 14.202C21.9974 14.202 22.3987 14.0947 22.7534 13.88C23.1127 13.6607 23.3974 13.3713 23.6074 13.012C23.8174 12.6527 23.9224 12.2583 23.9224 11.829C23.9224 11.3857 23.8127 10.9867 23.5934 10.632C23.3741 10.2727 23.0847 9.988 22.7254 9.778C22.3661 9.568 21.9741 9.463 21.5494 9.463C21.0734 9.463 20.6627 9.568 20.3174 9.778C19.9721 9.98333 19.6967 10.2423 19.4914 10.555L18.5534 10.163L18.8614 4.92H24.2444V5.907H19.3164L19.8274 5.424L19.5544 9.897L19.2954 9.554C19.5847 9.22267 19.9347 8.96367 20.3454 8.777C20.7561 8.59033 21.1877 8.497 21.6404 8.497C22.2611 8.497 22.8211 8.64633 23.3204 8.945C23.8197 9.239 24.2164 9.638 24.5104 10.142C24.8044 10.646 24.9514 11.2083 24.9514 11.829C24.9514 12.445 24.7951 13.0097 24.4824 13.523C24.1697 14.0317 23.7544 14.44 23.2364 14.748C22.7184 15.056 22.1467 15.21 21.5214 15.21ZM26.4865 16.463L26.5495 15.952C26.7362 15.966 26.8715 15.9287 26.9555 15.84C27.0395 15.7513 27.0908 15.6323 27.1095 15.483C27.1282 15.3337 27.1328 15.1727 27.1235 15H26.4865V13.523H27.6835V15.28C27.6835 15.7093 27.5738 16.0313 27.3545 16.246C27.1398 16.4607 26.8505 16.533 26.4865 16.463ZM33.6352 15.21C33.0146 15.21 32.4546 15.0653 31.9552 14.776C31.4606 14.4867 31.0686 14.0947 30.7792 13.6C30.4899 13.1007 30.3452 12.5407 30.3452 11.92V8C30.3452 7.37933 30.4899 6.82167 30.7792 6.327C31.0686 5.82767 31.4606 5.43333 31.9552 5.144C32.4546 4.85467 33.0146 4.71 33.6352 4.71C34.2559 4.71 34.8136 4.85467 35.3082 5.144C35.8076 5.43333 36.2019 5.82767 36.4912 6.327C36.7806 6.82167 36.9252 7.37933 36.9252 8V11.92C36.9252 12.5407 36.7806 13.1007 36.4912 13.6C36.2019 14.0947 35.8076 14.4867 35.3082 14.776C34.8136 15.0653 34.2559 15.21 33.6352 15.21ZM33.6352 14.216C34.0506 14.216 34.4286 14.1157 34.7692 13.915C35.1099 13.7097 35.3806 13.4367 35.5812 13.096C35.7819 12.7553 35.8822 12.3797 35.8822 11.969V7.951C35.8822 7.53567 35.7819 7.15767 35.5812 6.817C35.3806 6.47633 35.1099 6.20567 34.7692 6.005C34.4286 5.79967 34.0506 5.697 33.6352 5.697C33.2199 5.697 32.8419 5.79967 32.5012 6.005C32.1606 6.20567 31.8899 6.47633 31.6892 6.817C31.4886 7.15767 31.3882 7.53567 31.3882 7.951V11.969C31.3882 12.3797 31.4886 12.7553 31.6892 13.096C31.8899 13.4367 32.1606 13.7097 32.5012 13.915C32.8419 14.1157 33.2199 14.216 33.6352 14.216ZM42.1802 15.21C41.5595 15.21 40.9995 15.0653 40.5002 14.776C40.0055 14.4867 39.6135 14.0947 39.3242 13.6C39.0348 13.1007 38.8902 12.5407 38.8902 11.92V8C38.8902 7.37933 39.0348 6.82167 39.3242 6.327C39.6135 5.82767 40.0055 5.43333 40.5002 5.144C40.9995 4.85467 41.5595 4.71 42.1802 4.71C42.8008 4.71 43.3585 4.85467 43.8532 5.144C44.3525 5.43333 44.7468 5.82767 45.0362 6.327C45.3255 6.82167 45.4702 7.37933 45.4702 8V11.92C45.4702 12.5407 45.3255 13.1007 45.0362 13.6C44.7468 14.0947 44.3525 14.4867 43.8532 14.776C43.3585 15.0653 42.8008 15.21 42.1802 15.21ZM42.1802 14.216C42.5955 14.216 42.9735 14.1157 43.3142 13.915C43.6548 13.7097 43.9255 13.4367 44.1262 13.096C44.3268 12.7553 44.4272 12.3797 44.4272 11.969V7.951C44.4272 7.53567 44.3268 7.15767 44.1262 6.817C43.9255 6.47633 43.6548 6.20567 43.3142 6.005C42.9735 5.79967 42.5955 5.697 42.1802 5.697C41.7648 5.697 41.3868 5.79967 41.0462 6.005C40.7055 6.20567 40.4348 6.47633 40.2342 6.817C40.0335 7.15767 39.9332 7.53567 39.9332 7.951V11.969C39.9332 12.3797 40.0335 12.7553 40.2342 13.096C40.4348 13.4367 40.7055 13.7097 41.0462 13.915C41.3868 14.1157 41.7648 14.216 42.1802 14.216ZM50.7251 15.21C50.1044 15.21 49.5444 15.0653 49.0451 14.776C48.5504 14.4867 48.1584 14.0947 47.8691 13.6C47.5797 13.1007 47.4351 12.5407 47.4351 11.92V8C47.4351 7.37933 47.5797 6.82167 47.8691 6.327C48.1584 5.82767 48.5504 5.43333 49.0451 5.144C49.5444 4.85467 50.1044 4.71 50.7251 4.71C51.3457 4.71 51.9034 4.85467 52.3981 5.144C52.8974 5.43333 53.2917 5.82767 53.5811 6.327C53.8704 6.82167 54.0151 7.37933 54.0151 8V11.92C54.0151 12.5407 53.8704 13.1007 53.5811 13.6C53.2917 14.0947 52.8974 14.4867 52.3981 14.776C51.9034 15.0653 51.3457 15.21 50.7251 15.21ZM50.7251 14.216C51.1404 14.216 51.5184 14.1157 51.8591 13.915C52.1997 13.7097 52.4704 13.4367 52.6711 13.096C52.8717 12.7553 52.9721 12.3797 52.9721 11.969V7.951C52.9721 7.53567 52.8717 7.15767 52.6711 6.817C52.4704 6.47633 52.1997 6.20567 51.8591 6.005C51.5184 5.79967 51.1404 5.697 50.7251 5.697C50.3097 5.697 49.9317 5.79967 49.5911 6.005C49.2504 6.20567 48.9797 6.47633 48.7791 6.817C48.5784 7.15767 48.4781 7.53567 48.4781 7.951V11.969C48.4781 12.3797 48.5784 12.7553 48.7791 13.096C48.9797 13.4367 49.2504 13.7097 49.5911 13.915C49.9317 14.1157 50.3097 14.216 50.7251 14.216Z" fill="#64748B"/>
<path d="M4.51305 55.979V54.383H5.54205V55.979H4.51305ZM4.51305 44.73V43.127H5.54205V44.73H4.51305ZM5.15005 54.81C4.48271 54.81 3.88071 54.691 3.34405 54.453C2.81205 54.215 2.37105 53.879 2.02105 53.445C1.67571 53.011 1.44938 52.4976 1.34205 51.905L2.34305 51.73C2.49705 52.374 2.82838 52.885 3.33705 53.263C3.85038 53.6363 4.46871 53.823 5.19205 53.823C5.92471 53.823 6.51738 53.6456 6.97005 53.291C7.42271 52.9316 7.64905 52.4626 7.64905 51.884C7.64905 51.4546 7.52305 51.1116 7.27105 50.855C7.01905 50.5983 6.59205 50.379 5.99005 50.197L3.75005 49.497C2.39671 49.0723 1.72005 48.2696 1.72005 47.089C1.72005 46.5383 1.85538 46.0553 2.12605 45.64C2.40138 45.22 2.78171 44.8933 3.26705 44.66C3.75705 44.4266 4.32871 44.3123 4.98205 44.317C5.62138 44.317 6.19305 44.4383 6.69705 44.681C7.20571 44.919 7.62338 45.2573 7.95005 45.696C8.27671 46.1346 8.49371 46.655 8.60105 47.257L7.57205 47.453C7.50671 47.0236 7.35505 46.648 7.11705 46.326C6.88371 46.004 6.58271 45.7543 6.21405 45.577C5.84538 45.395 5.43471 45.3016 4.98205 45.297C4.55271 45.297 4.17005 45.3716 3.83405 45.521C3.49805 45.6703 3.23205 45.878 3.03605 46.144C2.84471 46.4053 2.74905 46.7063 2.74905 47.047C2.74905 47.4203 2.88205 47.7376 3.14805 47.999C3.41871 48.2556 3.84571 48.4726 4.42905 48.65L6.35405 49.231C7.16605 49.4736 7.75171 49.8003 8.11105 50.211C8.47038 50.6216 8.65005 51.17 8.65005 51.856C8.65005 52.4486 8.50538 52.9666 8.21605 53.41C7.92671 53.8533 7.51838 54.1986 6.99105 54.446C6.46838 54.6886 5.85471 54.81 5.15005 54.81ZM9.81719 54.593L9.82419 53.655L14.3812 49.539C14.7732 49.1843 15.0322 48.8483 15.1582 48.531C15.2889 48.209 15.3542 47.873 15.3542 47.523C15.3542 47.1076 15.2562 46.732 15.0602 46.396C14.8642 46.06 14.6005 45.794 14.2692 45.598C13.9379 45.3973 13.5669 45.297 13.1562 45.297C12.7269 45.297 12.3442 45.3996 12.0082 45.605C11.6722 45.8103 11.4062 46.081 11.2102 46.417C11.0189 46.753 10.9255 47.1193 10.9302 47.516H9.88019C9.88019 46.9046 10.0249 46.3563 10.3142 45.871C10.6035 45.3856 10.9955 45.0053 11.4902 44.73C11.9849 44.45 12.5449 44.31 13.1702 44.31C13.7815 44.31 14.3299 44.4546 14.8152 44.744C15.3052 45.0286 15.6902 45.416 15.9702 45.906C16.2549 46.3913 16.3972 46.9326 16.3972 47.53C16.3972 47.95 16.3459 48.321 16.2432 48.643C16.1452 48.9603 15.9889 49.2566 15.7742 49.532C15.5642 49.8026 15.2959 50.0826 14.9692 50.372L10.9232 54.026L10.7622 53.606H16.3972V54.593H9.81719ZM21.3716 54.81C20.7509 54.81 20.1909 54.6653 19.6916 54.376C19.1969 54.0866 18.8049 53.6946 18.5156 53.2C18.2262 52.7006 18.0816 52.1406 18.0816 51.52V47.6C18.0816 46.9793 18.2262 46.4216 18.5156 45.927C18.8049 45.4276 19.1969 45.0333 19.6916 44.744C20.1909 44.4546 20.7509 44.31 21.3716 44.31C21.9922 44.31 22.5499 44.4546 23.0446 44.744C23.5439 45.0333 23.9382 45.4276 24.2276 45.927C24.5169 46.4216 24.6616 46.9793 24.6616 47.6V51.52C24.6616 52.1406 24.5169 52.7006 24.2276 53.2C23.9382 53.6946 23.5439 54.0866 23.0446 54.376C22.5499 54.6653 21.9922 54.81 21.3716 54.81ZM21.3716 53.816C21.7869 53.816 22.1649 53.7156 22.5056 53.515C22.8462 53.3096 23.1169 53.0366 23.3176 52.696C23.5182 52.3553 23.6186 51.9796 23.6186 51.569V47.551C23.6186 47.1356 23.5182 46.7576 23.3176 46.417C23.1169 46.0763 22.8462 45.8056 22.5056 45.605C22.1649 45.3996 21.7869 45.297 21.3716 45.297C20.9562 45.297 20.5782 45.3996 20.2376 45.605C19.8969 45.8056 19.6262 46.0763 19.4256 46.417C19.2249 46.7576 19.1246 47.1356 19.1246 47.551V51.569C19.1246 51.9796 19.2249 52.3553 19.4256 52.696C19.6262 53.0366 19.8969 53.3096 20.2376 53.515C20.5782 53.7156 20.9562 53.816 21.3716 53.816ZM26.4865 56.063L26.5495 55.552C26.7362 55.566 26.8715 55.5286 26.9555 55.44C27.0395 55.3513 27.0908 55.2323 27.1095 55.083C27.1282 54.9336 27.1328 54.7726 27.1235 54.6H26.4865V53.123H27.6835V54.88C27.6835 55.3093 27.5738 55.6313 27.3545 55.846C27.1398 56.0606 26.8505 56.133 26.4865 56.063ZM33.6352 54.81C33.0146 54.81 32.4546 54.6653 31.9552 54.376C31.4606 54.0866 31.0686 53.6946 30.7792 53.2C30.4899 52.7006 30.3452 52.1406 30.3452 51.52V47.6C30.3452 46.9793 30.4899 46.4216 30.7792 45.927C31.0686 45.4276 31.4606 45.0333 31.9552 44.744C32.4546 44.4546 33.0146 44.31 33.6352 44.31C34.2559 44.31 34.8136 44.4546 35.3082 44.744C35.8076 45.0333 36.2019 45.4276 36.4912 45.927C36.7806 46.4216 36.9252 46.9793 36.9252 47.6V51.52C36.9252 52.1406 36.7806 52.7006 36.4912 53.2C36.2019 53.6946 35.8076 54.0866 35.3082 54.376C34.8136 54.6653 34.2559 54.81 33.6352 54.81ZM33.6352 53.816C34.0506 53.816 34.4286 53.7156 34.7692 53.515C35.1099 53.3096 35.3806 53.0366 35.5812 52.696C35.7819 52.3553 35.8822 51.9796 35.8822 51.569V47.551C35.8822 47.1356 35.7819 46.7576 35.5812 46.417C35.3806 46.0763 35.1099 45.8056 34.7692 45.605C34.4286 45.3996 34.0506 45.297 33.6352 45.297C33.2199 45.297 32.8419 45.3996 32.5012 45.605C32.1606 45.8056 31.8899 46.0763 31.6892 46.417C31.4886 46.7576 31.3882 47.1356 31.3882 47.551V51.569C31.3882 51.9796 31.4886 52.3553 31.6892 52.696C31.8899 53.0366 32.1606 53.3096 32.5012 53.515C32.8419 53.7156 33.2199 53.816 33.6352 53.816ZM42.1802 54.81C41.5595 54.81 40.9995 54.6653 40.5002 54.376C40.0055 54.0866 39.6135 53.6946 39.3242 53.2C39.0348 52.7006 38.8902 52.1406 38.8902 51.52V47.6C38.8902 46.9793 39.0348 46.4216 39.3242 45.927C39.6135 45.4276 40.0055 45.0333 40.5002 44.744C40.9995 44.4546 41.5595 44.31 42.1802 44.31C42.8008 44.31 43.3585 44.4546 43.8532 44.744C44.3525 45.0333 44.7468 45.4276 45.0362 45.927C45.3255 46.4216 45.4702 46.9793 45.4702 47.6V51.52C45.4702 52.1406 45.3255 52.7006 45.0362 53.2C44.7468 53.6946 44.3525 54.0866 43.8532 54.376C43.3585 54.6653 42.8008 54.81 42.1802 54.81ZM42.1802 53.816C42.5955 53.816 42.9735 53.7156 43.3142 53.515C43.6548 53.3096 43.9255 53.0366 44.1262 52.696C44.3268 52.3553 44.4272 51.9796 44.4272 51.569V47.551C44.4272 47.1356 44.3268 46.7576 44.1262 46.417C43.9255 46.0763 43.6548 45.8056 43.3142 45.605C42.9735 45.3996 42.5955 45.297 42.1802 45.297C41.7648 45.297 41.3868 45.3996 41.0462 45.605C40.7055 45.8056 40.4348 46.0763 40.2342 46.417C40.0335 46.7576 39.9332 47.1356 39.9332 47.551V51.569C39.9332 51.9796 40.0335 52.3553 40.2342 52.696C40.4348 53.0366 40.7055 53.3096 41.0462 53.515C41.3868 53.7156 41.7648 53.816 42.1802 53.816ZM50.7251 54.81C50.1044 54.81 49.5444 54.6653 49.0451 54.376C48.5504 54.0866 48.1584 53.6946 47.8691 53.2C47.5797 52.7006 47.4351 52.1406 47.4351 51.52V47.6C47.4351 46.9793 47.5797 46.4216 47.8691 45.927C48.1584 45.4276 48.5504 45.0333 49.0451 44.744C49.5444 44.4546 50.1044 44.31 50.7251 44.31C51.3457 44.31 51.9034 44.4546 52.3981 44.744C52.8974 45.0333 53.2917 45.4276 53.5811 45.927C53.8704 46.4216 54.0151 46.9793 54.0151 47.6V51.52C54.0151 52.1406 53.8704 52.7006 53.5811 53.2C53.2917 53.6946 52.8974 54.0866 52.3981 54.376C51.9034 54.6653 51.3457 54.81 50.7251 54.81ZM50.7251 53.816C51.1404 53.816 51.5184 53.7156 51.8591 53.515C52.1997 53.3096 52.4704 53.0366 52.6711 52.696C52.8717 52.3553 52.9721 51.9796 52.9721 51.569V47.551C52.9721 47.1356 52.8717 46.7576 52.6711 46.417C52.4704 46.0763 52.1997 45.8056 51.8591 45.605C51.5184 45.3996 51.1404 45.297 50.7251 45.297C50.3097 45.297 49.9317 45.3996 49.5911 45.605C49.2504 45.8056 48.9797 46.0763 48.7791 46.417C48.5784 46.7576 48.4781 47.1356 48.4781 47.551V51.569C48.4781 51.9796 48.5784 52.3553 48.7791 52.696C48.9797 53.0366 49.2504 53.3096 49.5911 53.515C49.9317 53.7156 50.3097 53.816 50.7251 53.816Z" fill="#64748B"/>
<path d="M6.64 95.579V93.983H7.669V95.579H6.64ZM6.64 84.33V82.727H7.669V84.33H6.64ZM7.277 94.41C6.60967 94.41 6.00767 94.291 5.471 94.053C4.939 93.815 4.498 93.479 4.148 93.045C3.80267 92.611 3.57633 92.0977 3.469 91.505L4.47 91.33C4.624 91.974 4.95533 92.485 5.464 92.863C5.97733 93.2363 6.59567 93.423 7.319 93.423C8.05167 93.423 8.64433 93.2457 9.097 92.891C9.54967 92.5317 9.776 92.0627 9.776 91.484C9.776 91.0547 9.65 90.7117 9.398 90.455C9.146 90.1983 8.719 89.979 8.117 89.797L5.877 89.097C4.52367 88.6723 3.847 87.8697 3.847 86.689C3.847 86.1383 3.98233 85.6553 4.253 85.24C4.52833 84.82 4.90867 84.4933 5.394 84.26C5.884 84.0267 6.45567 83.9123 7.109 83.917C7.74833 83.917 8.32 84.0383 8.824 84.281C9.33267 84.519 9.75033 84.8573 10.077 85.296C10.4037 85.7347 10.6207 86.255 10.728 86.857L9.699 87.053C9.63367 86.6237 9.482 86.248 9.244 85.926C9.01067 85.604 8.70967 85.3543 8.341 85.177C7.97233 84.995 7.56167 84.9017 7.109 84.897C6.67967 84.897 6.297 84.9717 5.961 85.121C5.625 85.2703 5.359 85.478 5.163 85.744C4.97167 86.0053 4.876 86.3063 4.876 86.647C4.876 87.0203 5.009 87.3377 5.275 87.599C5.54567 87.8557 5.97267 88.0727 6.556 88.25L8.481 88.831C9.293 89.0737 9.87867 89.4003 10.238 89.811C10.5973 90.2217 10.777 90.77 10.777 91.456C10.777 92.0487 10.6323 92.5667 10.343 93.01C10.0537 93.4533 9.64533 93.7987 9.118 94.046C8.59533 94.2887 7.98167 94.41 7.277 94.41ZM13.9811 94.2V85.268L12.0841 86.409V85.254L13.9811 84.12H15.0241V94.2H13.9811ZM20.6542 94.41C20.1316 94.41 19.6486 94.3027 19.2052 94.088C18.7619 93.8733 18.3839 93.577 18.0712 93.199C17.7586 92.821 17.5346 92.387 17.3992 91.897L18.3862 91.631C18.4749 91.995 18.6359 92.31 18.8692 92.576C19.1026 92.8373 19.3756 93.0403 19.6882 93.185C20.0056 93.3297 20.3369 93.402 20.6822 93.402C21.1302 93.402 21.5316 93.2947 21.8862 93.08C22.2456 92.8607 22.5302 92.5713 22.7402 92.212C22.9502 91.8527 23.0552 91.4583 23.0552 91.029C23.0552 90.5857 22.9456 90.1867 22.7262 89.832C22.5069 89.4727 22.2176 89.188 21.8582 88.978C21.4989 88.768 21.1069 88.663 20.6822 88.663C20.2062 88.663 19.7956 88.768 19.4502 88.978C19.1049 89.1833 18.8296 89.4423 18.6242 89.755L17.6862 89.363L17.9942 84.12H23.3772V85.107H18.4492L18.9602 84.624L18.6872 89.097L18.4282 88.754C18.7176 88.4227 19.0676 88.1637 19.4782 87.977C19.8889 87.7903 20.3206 87.697 20.7732 87.697C21.3939 87.697 21.9539 87.8463 22.4532 88.145C22.9526 88.439 23.3492 88.838 23.6432 89.342C23.9372 89.846 24.0842 90.4083 24.0842 91.029C24.0842 91.645 23.9279 92.2097 23.6152 92.723C23.3026 93.2317 22.8872 93.64 22.3692 93.948C21.8512 94.256 21.2796 94.41 20.6542 94.41ZM25.6193 95.663L25.6823 95.152C25.869 95.166 26.0043 95.1287 26.0883 95.04C26.1723 94.9513 26.2236 94.8323 26.2423 94.683C26.261 94.5337 26.2656 94.3727 26.2563 94.2H25.6193V92.723H26.8163V94.48C26.8163 94.9093 26.7066 95.2313 26.4873 95.446C26.2726 95.6607 25.9833 95.733 25.6193 95.663ZM32.768 94.41C32.1474 94.41 31.5874 94.2653 31.088 93.976C30.5934 93.6867 30.2014 93.2947 29.912 92.8C29.6227 92.3007 29.478 91.7407 29.478 91.12V87.2C29.478 86.5793 29.6227 86.0217 29.912 85.527C30.2014 85.0277 30.5934 84.6333 31.088 84.344C31.5874 84.0547 32.1474 83.91 32.768 83.91C33.3887 83.91 33.9464 84.0547 34.441 84.344C34.9404 84.6333 35.3347 85.0277 35.624 85.527C35.9134 86.0217 36.058 86.5793 36.058 87.2V91.12C36.058 91.7407 35.9134 92.3007 35.624 92.8C35.3347 93.2947 34.9404 93.6867 34.441 93.976C33.9464 94.2653 33.3887 94.41 32.768 94.41ZM32.768 93.416C33.1834 93.416 33.5614 93.3157 33.902 93.115C34.2427 92.9097 34.5134 92.6367 34.714 92.296C34.9147 91.9553 35.015 91.5797 35.015 91.169V87.151C35.015 86.7357 34.9147 86.3577 34.714 86.017C34.5134 85.6763 34.2427 85.4057 33.902 85.205C33.5614 84.9997 33.1834 84.897 32.768 84.897C32.3527 84.897 31.9747 84.9997 31.634 85.205C31.2934 85.4057 31.0227 85.6763 30.822 86.017C30.6214 86.3577 30.521 86.7357 30.521 87.151V91.169C30.521 91.5797 30.6214 91.9553 30.822 92.296C31.0227 92.6367 31.2934 92.9097 31.634 93.115C31.9747 93.3157 32.3527 93.416 32.768 93.416ZM41.313 94.41C40.6923 94.41 40.1323 94.2653 39.633 93.976C39.1383 93.6867 38.7463 93.2947 38.457 92.8C38.1676 92.3007 38.023 91.7407 38.023 91.12V87.2C38.023 86.5793 38.1676 86.0217 38.457 85.527C38.7463 85.0277 39.1383 84.6333 39.633 84.344C40.1323 84.0547 40.6923 83.91 41.313 83.91C41.9336 83.91 42.4913 84.0547 42.986 84.344C43.4853 84.6333 43.8796 85.0277 44.169 85.527C44.4583 86.0217 44.603 86.5793 44.603 87.2V91.12C44.603 91.7407 44.4583 92.3007 44.169 92.8C43.8796 93.2947 43.4853 93.6867 42.986 93.976C42.4913 94.2653 41.9336 94.41 41.313 94.41ZM41.313 93.416C41.7283 93.416 42.1063 93.3157 42.447 93.115C42.7876 92.9097 43.0583 92.6367 43.259 92.296C43.4596 91.9553 43.56 91.5797 43.56 91.169V87.151C43.56 86.7357 43.4596 86.3577 43.259 86.017C43.0583 85.6763 42.7876 85.4057 42.447 85.205C42.1063 84.9997 41.7283 84.897 41.313 84.897C40.8976 84.897 40.5196 84.9997 40.179 85.205C39.8383 85.4057 39.5676 85.6763 39.367 86.017C39.1663 86.3577 39.066 86.7357 39.066 87.151V91.169C39.066 91.5797 39.1663 91.9553 39.367 92.296C39.5676 92.6367 39.8383 92.9097 40.179 93.115C40.5196 93.3157 40.8976 93.416 41.313 93.416ZM49.8579 94.41C49.2372 94.41 48.6772 94.2653 48.1779 93.976C47.6832 93.6867 47.2912 93.2947 47.0019 92.8C46.7126 92.3007 46.5679 91.7407 46.5679 91.12V87.2C46.5679 86.5793 46.7126 86.0217 47.0019 85.527C47.2912 85.0277 47.6832 84.6333 48.1779 84.344C48.6772 84.0547 49.2372 83.91 49.8579 83.91C50.4786 83.91 51.0362 84.0547 51.5309 84.344C52.0302 84.6333 52.4246 85.0277 52.7139 85.527C53.0032 86.0217 53.1479 86.5793 53.1479 87.2V91.12C53.1479 91.7407 53.0032 92.3007 52.7139 92.8C52.4246 93.2947 52.0302 93.6867 51.5309 93.976C51.0362 94.2653 50.4786 94.41 49.8579 94.41ZM49.8579 93.416C50.2732 93.416 50.6512 93.3157 50.9919 93.115C51.3326 92.9097 51.6032 92.6367 51.8039 92.296C52.0046 91.9553 52.1049 91.5797 52.1049 91.169V87.151C52.1049 86.7357 52.0046 86.3577 51.8039 86.017C51.6032 85.6763 51.3326 85.4057 50.9919 85.205C50.6512 84.9997 50.2732 84.897 49.8579 84.897C49.4426 84.897 49.0646 84.9997 48.7239 85.205C48.3832 85.4057 48.1126 85.6763 47.9119 86.017C47.7112 86.3577 47.6109 86.7357 47.6109 87.151V91.169C47.6109 91.5797 47.7112 91.9553 47.9119 92.296C48.1126 92.6367 48.3832 92.9097 48.7239 93.115C49.0646 93.3157 49.4426 93.416 49.8579 93.416Z" fill="#64748B"/>
<path d="M7.04234 135.179V133.583H8.07134V135.179H7.04234ZM7.04234 123.93V122.327H8.07134V123.93H7.04234ZM7.67934 134.01C7.01201 134.01 6.41001 133.891 5.87334 133.653C5.34134 133.415 4.90034 133.079 4.55034 132.645C4.20501 132.211 3.97868 131.698 3.87134 131.105L4.87234 130.93C5.02634 131.574 5.35768 132.085 5.86634 132.463C6.37968 132.836 6.99801 133.023 7.72134 133.023C8.45401 133.023 9.04668 132.846 9.49934 132.491C9.95201 132.132 10.1783 131.663 10.1783 131.084C10.1783 130.655 10.0523 130.312 9.80034 130.055C9.54834 129.798 9.12134 129.579 8.51934 129.397L6.27934 128.697C4.92601 128.272 4.24934 127.47 4.24934 126.289C4.24934 125.738 4.38468 125.255 4.65534 124.84C4.93068 124.42 5.31101 124.093 5.79634 123.86C6.28634 123.627 6.85801 123.512 7.51134 123.517C8.15068 123.517 8.72234 123.638 9.22634 123.881C9.73501 124.119 10.1527 124.457 10.4793 124.896C10.806 125.335 11.023 125.855 11.1303 126.457L10.1013 126.653C10.036 126.224 9.88434 125.848 9.64634 125.526C9.41301 125.204 9.11201 124.954 8.74334 124.777C8.37468 124.595 7.96401 124.502 7.51134 124.497C7.08201 124.497 6.69934 124.572 6.36334 124.721C6.02734 124.87 5.76134 125.078 5.56534 125.344C5.37401 125.605 5.27834 125.906 5.27834 126.247C5.27834 126.62 5.41134 126.938 5.67734 127.199C5.94801 127.456 6.37501 127.673 6.95834 127.85L8.88334 128.431C9.69534 128.674 10.281 129 10.6403 129.411C10.9997 129.822 11.1793 130.37 11.1793 131.056C11.1793 131.649 11.0347 132.167 10.7453 132.61C10.456 133.053 10.0477 133.399 9.52034 133.646C8.99768 133.889 8.38401 134.01 7.67934 134.01ZM14.3835 133.8V124.868L12.4865 126.009V124.854L14.3835 123.72H15.4265V133.8H14.3835ZM21.3716 134.01C20.7509 134.01 20.1909 133.865 19.6916 133.576C19.1969 133.287 18.8049 132.895 18.5156 132.4C18.2262 131.901 18.0816 131.341 18.0816 130.72V126.8C18.0816 126.179 18.2262 125.622 18.5156 125.127C18.8049 124.628 19.1969 124.233 19.6916 123.944C20.1909 123.655 20.7509 123.51 21.3716 123.51C21.9922 123.51 22.5499 123.655 23.0446 123.944C23.5439 124.233 23.9382 124.628 24.2276 125.127C24.5169 125.622 24.6616 126.179 24.6616 126.8V130.72C24.6616 131.341 24.5169 131.901 24.2276 132.4C23.9382 132.895 23.5439 133.287 23.0446 133.576C22.5499 133.865 21.9922 134.01 21.3716 134.01ZM21.3716 133.016C21.7869 133.016 22.1649 132.916 22.5056 132.715C22.8462 132.51 23.1169 132.237 23.3176 131.896C23.5182 131.555 23.6186 131.18 23.6186 130.769V126.751C23.6186 126.336 23.5182 125.958 23.3176 125.617C23.1169 125.276 22.8462 125.006 22.5056 124.805C22.1649 124.6 21.7869 124.497 21.3716 124.497C20.9562 124.497 20.5782 124.6 20.2376 124.805C19.8969 125.006 19.6262 125.276 19.4256 125.617C19.2249 125.958 19.1246 126.336 19.1246 126.751V130.769C19.1246 131.18 19.2249 131.555 19.4256 131.896C19.6262 132.237 19.8969 132.51 20.2376 132.715C20.5782 132.916 20.9562 133.016 21.3716 133.016ZM26.4865 135.263L26.5495 134.752C26.7362 134.766 26.8715 134.729 26.9555 134.64C27.0395 134.551 27.0908 134.432 27.1095 134.283C27.1282 134.134 27.1328 133.973 27.1235 133.8H26.4865V132.323H27.6835V134.08C27.6835 134.509 27.5738 134.831 27.3545 135.046C27.1398 135.261 26.8505 135.333 26.4865 135.263ZM33.6352 134.01C33.0146 134.01 32.4546 133.865 31.9552 133.576C31.4606 133.287 31.0686 132.895 30.7792 132.4C30.4899 131.901 30.3452 131.341 30.3452 130.72V126.8C30.3452 126.179 30.4899 125.622 30.7792 125.127C31.0686 124.628 31.4606 124.233 31.9552 123.944C32.4546 123.655 33.0146 123.51 33.6352 123.51C34.2559 123.51 34.8136 123.655 35.3082 123.944C35.8076 124.233 36.2019 124.628 36.4912 125.127C36.7806 125.622 36.9252 126.179 36.9252 126.8V130.72C36.9252 131.341 36.7806 131.901 36.4912 132.4C36.2019 132.895 35.8076 133.287 35.3082 133.576C34.8136 133.865 34.2559 134.01 33.6352 134.01ZM33.6352 133.016C34.0506 133.016 34.4286 132.916 34.7692 132.715C35.1099 132.51 35.3806 132.237 35.5812 131.896C35.7819 131.555 35.8822 131.18 35.8822 130.769V126.751C35.8822 126.336 35.7819 125.958 35.5812 125.617C35.3806 125.276 35.1099 125.006 34.7692 124.805C34.4286 124.6 34.0506 124.497 33.6352 124.497C33.2199 124.497 32.8419 124.6 32.5012 124.805C32.1606 125.006 31.8899 125.276 31.6892 125.617C31.4886 125.958 31.3882 126.336 31.3882 126.751V130.769C31.3882 131.18 31.4886 131.555 31.6892 131.896C31.8899 132.237 32.1606 132.51 32.5012 132.715C32.8419 132.916 33.2199 133.016 33.6352 133.016ZM42.1802 134.01C41.5595 134.01 40.9995 133.865 40.5002 133.576C40.0055 133.287 39.6135 132.895 39.3242 132.4C39.0348 131.901 38.8902 131.341 38.8902 130.72V126.8C38.8902 126.179 39.0348 125.622 39.3242 125.127C39.6135 124.628 40.0055 124.233 40.5002 123.944C40.9995 123.655 41.5595 123.51 42.1802 123.51C42.8008 123.51 43.3585 123.655 43.8532 123.944C44.3525 124.233 44.7468 124.628 45.0362 125.127C45.3255 125.622 45.4702 126.179 45.4702 126.8V130.72C45.4702 131.341 45.3255 131.901 45.0362 132.4C44.7468 132.895 44.3525 133.287 43.8532 133.576C43.3585 133.865 42.8008 134.01 42.1802 134.01ZM42.1802 133.016C42.5955 133.016 42.9735 132.916 43.3142 132.715C43.6548 132.51 43.9255 132.237 44.1262 131.896C44.3268 131.555 44.4272 131.18 44.4272 130.769V126.751C44.4272 126.336 44.3268 125.958 44.1262 125.617C43.9255 125.276 43.6548 125.006 43.3142 124.805C42.9735 124.6 42.5955 124.497 42.1802 124.497C41.7648 124.497 41.3868 124.6 41.0462 124.805C40.7055 125.006 40.4348 125.276 40.2342 125.617C40.0335 125.958 39.9332 126.336 39.9332 126.751V130.769C39.9332 131.18 40.0335 131.555 40.2342 131.896C40.4348 132.237 40.7055 132.51 41.0462 132.715C41.3868 132.916 41.7648 133.016 42.1802 133.016ZM50.7251 134.01C50.1044 134.01 49.5444 133.865 49.0451 133.576C48.5504 133.287 48.1584 132.895 47.8691 132.4C47.5797 131.901 47.4351 131.341 47.4351 130.72V126.8C47.4351 126.179 47.5797 125.622 47.8691 125.127C48.1584 124.628 48.5504 124.233 49.0451 123.944C49.5444 123.655 50.1044 123.51 50.7251 123.51C51.3457 123.51 51.9034 123.655 52.3981 123.944C52.8974 124.233 53.2917 124.628 53.5811 125.127C53.8704 125.622 54.0151 126.179 54.0151 126.8V130.72C54.0151 131.341 53.8704 131.901 53.5811 132.4C53.2917 132.895 52.8974 133.287 52.3981 133.576C51.9034 133.865 51.3457 134.01 50.7251 134.01ZM50.7251 133.016C51.1404 133.016 51.5184 132.916 51.8591 132.715C52.1997 132.51 52.4704 132.237 52.6711 131.896C52.8717 131.555 52.9721 131.18 52.9721 130.769V126.751C52.9721 126.336 52.8717 125.958 52.6711 125.617C52.4704 125.276 52.1997 125.006 51.8591 124.805C51.5184 124.6 51.1404 124.497 50.7251 124.497C50.3097 124.497 49.9317 124.6 49.5911 124.805C49.2504 125.006 48.9797 125.276 48.7791 125.617C48.5784 125.958 48.4781 126.336 48.4781 126.751V130.769C48.4781 131.18 48.5784 131.555 48.7791 131.896C48.9797 132.237 49.2504 132.51 49.5911 132.715C49.9317 132.916 50.3097 133.016 50.7251 133.016Z" fill="#64748B"/>
<path d="M12.9623 174.779V173.183H13.9913V174.779H12.9623ZM12.9623 163.53V161.927H13.9913V163.53H12.9623ZM13.5993 173.61C12.9319 173.61 12.3299 173.491 11.7933 173.253C11.2613 173.015 10.8203 172.679 10.4703 172.245C10.1249 171.811 9.8986 171.298 9.79127 170.705L10.7923 170.53C10.9463 171.174 11.2776 171.685 11.7863 172.063C12.2996 172.436 12.9179 172.623 13.6413 172.623C14.3739 172.623 14.9666 172.446 15.4193 172.091C15.8719 171.732 16.0983 171.263 16.0983 170.684C16.0983 170.255 15.9723 169.912 15.7203 169.655C15.4683 169.398 15.0413 169.179 14.4393 168.997L12.1993 168.297C10.8459 167.872 10.1693 167.07 10.1693 165.889C10.1693 165.338 10.3046 164.855 10.5753 164.44C10.8506 164.02 11.2309 163.693 11.7163 163.46C12.2063 163.227 12.7779 163.112 13.4313 163.117C14.0706 163.117 14.6423 163.238 15.1463 163.481C15.6549 163.719 16.0726 164.057 16.3993 164.496C16.7259 164.935 16.9429 165.455 17.0503 166.057L16.0213 166.253C15.9559 165.824 15.8043 165.448 15.5663 165.126C15.3329 164.804 15.0319 164.554 14.6633 164.377C14.2946 164.195 13.8839 164.102 13.4313 164.097C13.0019 164.097 12.6193 164.172 12.2833 164.321C11.9473 164.47 11.6813 164.678 11.4853 164.944C11.2939 165.205 11.1983 165.506 11.1983 165.847C11.1983 166.22 11.3313 166.538 11.5973 166.799C11.8679 167.056 12.2949 167.273 12.8783 167.45L14.8033 168.031C15.6153 168.274 16.2009 168.6 16.5603 169.011C16.9196 169.422 17.0993 169.97 17.0993 170.656C17.0993 171.249 16.9546 171.767 16.6653 172.21C16.3759 172.653 15.9676 172.999 15.4403 173.246C14.9176 173.489 14.3039 173.61 13.5993 173.61ZM21.5214 173.61C20.9987 173.61 20.5157 173.503 20.0724 173.288C19.6291 173.073 19.2511 172.777 18.9384 172.399C18.6257 172.021 18.4017 171.587 18.2664 171.097L19.2534 170.831C19.3421 171.195 19.5031 171.51 19.7364 171.776C19.9697 172.037 20.2427 172.24 20.5554 172.385C20.8727 172.53 21.2041 172.602 21.5494 172.602C21.9974 172.602 22.3987 172.495 22.7534 172.28C23.1127 172.061 23.3974 171.771 23.6074 171.412C23.8174 171.053 23.9224 170.658 23.9224 170.229C23.9224 169.786 23.8127 169.387 23.5934 169.032C23.3741 168.673 23.0847 168.388 22.7254 168.178C22.3661 167.968 21.9741 167.863 21.5494 167.863C21.0734 167.863 20.6627 167.968 20.3174 168.178C19.9721 168.383 19.6967 168.642 19.4914 168.955L18.5534 168.563L18.8614 163.32H24.2444V164.307H19.3164L19.8274 163.824L19.5544 168.297L19.2954 167.954C19.5847 167.623 19.9347 167.364 20.3454 167.177C20.7561 166.99 21.1877 166.897 21.6404 166.897C22.2611 166.897 22.8211 167.046 23.3204 167.345C23.8197 167.639 24.2164 168.038 24.5104 168.542C24.8044 169.046 24.9514 169.608 24.9514 170.229C24.9514 170.845 24.7951 171.41 24.4824 171.923C24.1697 172.432 23.7544 172.84 23.2364 173.148C22.7184 173.456 22.1467 173.61 21.5214 173.61ZM26.4865 174.863L26.5495 174.352C26.7362 174.366 26.8715 174.329 26.9555 174.24C27.0395 174.151 27.0908 174.032 27.1095 173.883C27.1282 173.734 27.1328 173.573 27.1235 173.4H26.4865V171.923H27.6835V173.68C27.6835 174.109 27.5738 174.431 27.3545 174.646C27.1398 174.861 26.8505 174.933 26.4865 174.863ZM33.6352 173.61C33.0146 173.61 32.4546 173.465 31.9552 173.176C31.4606 172.887 31.0686 172.495 30.7792 172C30.4899 171.501 30.3452 170.941 30.3452 170.32V166.4C30.3452 165.779 30.4899 165.222 30.7792 164.727C31.0686 164.228 31.4606 163.833 31.9552 163.544C32.4546 163.255 33.0146 163.11 33.6352 163.11C34.2559 163.11 34.8136 163.255 35.3082 163.544C35.8076 163.833 36.2019 164.228 36.4912 164.727C36.7806 165.222 36.9252 165.779 36.9252 166.4V170.32C36.9252 170.941 36.7806 171.501 36.4912 172C36.2019 172.495 35.8076 172.887 35.3082 173.176C34.8136 173.465 34.2559 173.61 33.6352 173.61ZM33.6352 172.616C34.0506 172.616 34.4286 172.516 34.7692 172.315C35.1099 172.11 35.3806 171.837 35.5812 171.496C35.7819 171.155 35.8822 170.78 35.8822 170.369V166.351C35.8822 165.936 35.7819 165.558 35.5812 165.217C35.3806 164.876 35.1099 164.606 34.7692 164.405C34.4286 164.2 34.0506 164.097 33.6352 164.097C33.2199 164.097 32.8419 164.2 32.5012 164.405C32.1606 164.606 31.8899 164.876 31.6892 165.217C31.4886 165.558 31.3882 165.936 31.3882 166.351V170.369C31.3882 170.78 31.4886 171.155 31.6892 171.496C31.8899 171.837 32.1606 172.11 32.5012 172.315C32.8419 172.516 33.2199 172.616 33.6352 172.616ZM42.1802 173.61C41.5595 173.61 40.9995 173.465 40.5002 173.176C40.0055 172.887 39.6135 172.495 39.3242 172C39.0348 171.501 38.8902 170.941 38.8902 170.32V166.4C38.8902 165.779 39.0348 165.222 39.3242 164.727C39.6135 164.228 40.0055 163.833 40.5002 163.544C40.9995 163.255 41.5595 163.11 42.1802 163.11C42.8008 163.11 43.3585 163.255 43.8532 163.544C44.3525 163.833 44.7468 164.228 45.0362 164.727C45.3255 165.222 45.4702 165.779 45.4702 166.4V170.32C45.4702 170.941 45.3255 171.501 45.0362 172C44.7468 172.495 44.3525 172.887 43.8532 173.176C43.3585 173.465 42.8008 173.61 42.1802 173.61ZM42.1802 172.616C42.5955 172.616 42.9735 172.516 43.3142 172.315C43.6548 172.11 43.9255 171.837 44.1262 171.496C44.3268 171.155 44.4272 170.78 44.4272 170.369V166.351C44.4272 165.936 44.3268 165.558 44.1262 165.217C43.9255 164.876 43.6548 164.606 43.3142 164.405C42.9735 164.2 42.5955 164.097 42.1802 164.097C41.7648 164.097 41.3868 164.2 41.0462 164.405C40.7055 164.606 40.4348 164.876 40.2342 165.217C40.0335 165.558 39.9332 165.936 39.9332 166.351V170.369C39.9332 170.78 40.0335 171.155 40.2342 171.496C40.4348 171.837 40.7055 172.11 41.0462 172.315C41.3868 172.516 41.7648 172.616 42.1802 172.616ZM50.7251 173.61C50.1044 173.61 49.5444 173.465 49.0451 173.176C48.5504 172.887 48.1584 172.495 47.8691 172C47.5797 171.501 47.4351 170.941 47.4351 170.32V166.4C47.4351 165.779 47.5797 165.222 47.8691 164.727C48.1584 164.228 48.5504 163.833 49.0451 163.544C49.5444 163.255 50.1044 163.11 50.7251 163.11C51.3457 163.11 51.9034 163.255 52.3981 163.544C52.8974 163.833 53.2917 164.228 53.5811 164.727C53.8704 165.222 54.0151 165.779 54.0151 166.4V170.32C54.0151 170.941 53.8704 171.501 53.5811 172C53.2917 172.495 52.8974 172.887 52.3981 173.176C51.9034 173.465 51.3457 173.61 50.7251 173.61ZM50.7251 172.616C51.1404 172.616 51.5184 172.516 51.8591 172.315C52.1997 172.11 52.4704 171.837 52.6711 171.496C52.8717 171.155 52.9721 170.78 52.9721 170.369V166.351C52.9721 165.936 52.8717 165.558 52.6711 165.217C52.4704 164.876 52.1997 164.606 51.8591 164.405C51.5184 164.2 51.1404 164.097 50.7251 164.097C50.3097 164.097 49.9317 164.2 49.5911 164.405C49.2504 164.606 48.9797 164.876 48.7791 165.217C48.5784 165.558 48.4781 165.936 48.4781 166.351V170.369C48.4781 170.78 48.5784 171.155 48.7791 171.496C48.9797 171.837 49.2504 172.11 49.5911 172.315C49.9317 172.516 50.3097 172.616 50.7251 172.616Z" fill="#64748B"/>
<path d="M41.8509 214.379V212.783H42.8799V214.379H41.8509ZM41.8509 203.13V201.527H42.8799V203.13H41.8509ZM42.4879 213.21C41.8206 213.21 41.2186 213.091 40.6819 212.853C40.1499 212.615 39.7089 212.279 39.3589 211.845C39.0136 211.411 38.7873 210.898 38.6799 210.305L39.6809 210.13C39.8349 210.774 40.1663 211.285 40.6749 211.663C41.1883 212.036 41.8066 212.223 42.5299 212.223C43.2626 212.223 43.8553 212.046 44.3079 211.691C44.7606 211.332 44.9869 210.863 44.9869 210.284C44.9869 209.855 44.8609 209.512 44.6089 209.255C44.3569 208.998 43.9299 208.779 43.3279 208.597L41.0879 207.897C39.7346 207.472 39.0579 206.67 39.0579 205.489C39.0579 204.938 39.1933 204.455 39.4639 204.04C39.7393 203.62 40.1196 203.293 40.6049 203.06C41.0949 202.827 41.6666 202.712 42.3199 202.717C42.9593 202.717 43.5309 202.838 44.0349 203.081C44.5436 203.319 44.9613 203.657 45.2879 204.096C45.6146 204.535 45.8316 205.055 45.9389 205.657L44.9099 205.853C44.8446 205.424 44.6929 205.048 44.4549 204.726C44.2216 204.404 43.9206 204.154 43.5519 203.977C43.1833 203.795 42.7726 203.702 42.3199 203.697C41.8906 203.697 41.5079 203.772 41.1719 203.921C40.8359 204.07 40.5699 204.278 40.3739 204.544C40.1826 204.805 40.0869 205.106 40.0869 205.447C40.0869 205.82 40.2199 206.138 40.4859 206.399C40.7566 206.656 41.1836 206.873 41.7669 207.05L43.6919 207.631C44.5039 207.874 45.0896 208.2 45.4489 208.611C45.8083 209.022 45.9879 209.57 45.9879 210.256C45.9879 210.849 45.8433 211.367 45.5539 211.81C45.2646 212.253 44.8563 212.599 44.3289 212.846C43.8063 213.089 43.1926 213.21 42.4879 213.21ZM50.7251 213.21C50.1044 213.21 49.5444 213.065 49.0451 212.776C48.5504 212.487 48.1584 212.095 47.8691 211.6C47.5797 211.101 47.4351 210.541 47.4351 209.92V206C47.4351 205.379 47.5797 204.822 47.8691 204.327C48.1584 203.828 48.5504 203.433 49.0451 203.144C49.5444 202.855 50.1044 202.71 50.7251 202.71C51.3457 202.71 51.9034 202.855 52.3981 203.144C52.8974 203.433 53.2917 203.828 53.5811 204.327C53.8704 204.822 54.0151 205.379 54.0151 206V209.92C54.0151 210.541 53.8704 211.101 53.5811 211.6C53.2917 212.095 52.8974 212.487 52.3981 212.776C51.9034 213.065 51.3457 213.21 50.7251 213.21ZM50.7251 212.216C51.1404 212.216 51.5184 212.116 51.8591 211.915C52.1997 211.71 52.4704 211.437 52.6711 211.096C52.8717 210.755 52.9721 210.38 52.9721 209.969V205.951C52.9721 205.536 52.8717 205.158 52.6711 204.817C52.4704 204.476 52.1997 204.206 51.8591 204.005C51.5184 203.8 51.1404 203.697 50.7251 203.697C50.3097 203.697 49.9317 203.8 49.5911 204.005C49.2504 204.206 48.9797 204.476 48.7791 204.817C48.5784 205.158 48.4781 205.536 48.4781 205.951V209.969C48.4781 210.38 48.5784 210.755 48.7791 211.096C48.9797 211.437 49.2504 211.71 49.5911 211.915C49.9317 212.116 50.3097 212.216 50.7251 212.216Z" fill="#64748B"/>
<rect x="89.6667" y="91" width="20" height="34" rx="2" fill="#C1AEEF"/>
<rect x="89.6667" y="126" width="20" height="47" rx="2" fill="#8355F1"/>
<rect x="89.6667" y="174" width="20" height="35" rx="2" fill="#5F23EF"/>
<path d="M90.8687 249.203C90.1967 249.203 89.6204 249.016 89.1397 248.643C88.659 248.27 88.3347 247.77 88.1667 247.145L89.1957 246.9C89.2797 247.269 89.4734 247.581 89.7767 247.838C90.0847 248.09 90.4464 248.216 90.8617 248.216C91.123 248.216 91.3867 248.153 91.6527 248.027C91.9234 247.901 92.1357 247.693 92.2897 247.404C92.3924 247.203 92.4507 246.986 92.4647 246.753C92.4834 246.515 92.4927 246.23 92.4927 245.899V238.92H93.5287V245.899C93.5287 246.179 93.5264 246.433 93.5217 246.662C93.517 246.886 93.4914 247.103 93.4447 247.313C93.4027 247.518 93.321 247.726 93.1997 247.936C92.957 248.361 92.6304 248.678 92.2197 248.888C91.8137 249.098 91.3634 249.203 90.8687 249.203ZM97.8038 249.21C97.2345 249.21 96.7562 249.107 96.3688 248.902C95.9862 248.697 95.6992 248.424 95.5078 248.083C95.3165 247.742 95.2208 247.371 95.2208 246.97C95.2208 246.559 95.3025 246.209 95.4658 245.92C95.6338 245.626 95.8602 245.386 96.1448 245.199C96.4342 245.012 96.7678 244.87 97.1458 244.772C97.5285 244.679 97.9508 244.597 98.4128 244.527C98.8795 244.452 99.3345 244.389 99.7778 244.338C100.226 244.282 100.618 244.228 100.954 244.177L100.59 244.401C100.604 243.654 100.459 243.101 100.156 242.742C99.8525 242.383 99.3252 242.203 98.5738 242.203C98.0558 242.203 97.6172 242.32 97.2578 242.553C96.9032 242.786 96.6535 243.155 96.5088 243.659L95.5078 243.365C95.6805 242.688 96.0282 242.163 96.5508 241.79C97.0735 241.417 97.7525 241.23 98.5878 241.23C99.2785 241.23 99.8642 241.361 100.345 241.622C100.83 241.879 101.173 242.252 101.374 242.742C101.467 242.961 101.528 243.206 101.556 243.477C101.584 243.748 101.598 244.023 101.598 244.303V249H100.681V247.103L100.947 247.215C100.69 247.864 100.291 248.358 99.7498 248.699C99.2085 249.04 98.5598 249.21 97.8038 249.21ZM97.9228 248.321C98.4035 248.321 98.8235 248.235 99.1828 248.062C99.5422 247.889 99.8315 247.654 100.051 247.355C100.27 247.052 100.412 246.711 100.478 246.333C100.534 246.09 100.564 245.824 100.569 245.535C100.573 245.241 100.576 245.022 100.576 244.877L100.968 245.08C100.618 245.127 100.237 245.173 99.8268 245.22C99.4208 245.267 99.0195 245.32 98.6228 245.381C98.2308 245.442 97.8762 245.514 97.5588 245.598C97.3442 245.659 97.1365 245.745 96.9358 245.857C96.7352 245.964 96.5695 246.109 96.4388 246.291C96.3128 246.473 96.2498 246.699 96.2498 246.97C96.2498 247.189 96.3035 247.402 96.4108 247.607C96.5228 247.812 96.7002 247.983 96.9428 248.118C97.1902 248.253 97.5168 248.321 97.9228 248.321ZM108.88 249V245.143C108.88 244.723 108.84 244.338 108.761 243.988C108.682 243.633 108.553 243.325 108.376 243.064C108.203 242.798 107.977 242.593 107.697 242.448C107.422 242.303 107.086 242.231 106.689 242.231C106.325 242.231 106.003 242.294 105.723 242.42C105.448 242.546 105.214 242.728 105.023 242.966C104.836 243.199 104.694 243.484 104.596 243.82C104.498 244.156 104.449 244.539 104.449 244.968L103.721 244.807C103.721 244.032 103.856 243.381 104.127 242.854C104.398 242.327 104.771 241.928 105.247 241.657C105.723 241.386 106.269 241.251 106.885 241.251C107.338 241.251 107.732 241.321 108.068 241.461C108.409 241.601 108.696 241.79 108.929 242.028C109.167 242.266 109.358 242.539 109.503 242.847C109.648 243.15 109.753 243.475 109.818 243.82C109.883 244.161 109.916 244.501 109.916 244.842V249H108.88ZM103.413 249V241.44H104.344V243.302H104.449V249H103.413Z" fill="#64748B"/>
<rect x="153" y="72" width="20" height="23" rx="2" fill="#C1AEEF"/>
<rect x="153" y="96" width="20" height="62" rx="2" fill="#8355F1"/>
<rect x="153" y="159" width="20" height="50" rx="2" fill="#5F23EF"/>
<path d="M151.98 249V238.92H157.769V239.949H153.009V243.449H156.929V244.471H153.009V249H151.98ZM162.029 249.21C161.291 249.21 160.652 249.047 160.111 248.72C159.574 248.393 159.156 247.934 158.858 247.341C158.559 246.748 158.41 246.053 158.41 245.255C158.41 244.429 158.557 243.715 158.851 243.113C159.145 242.511 159.558 242.047 160.09 241.72C160.626 241.393 161.259 241.23 161.987 241.23C162.733 241.23 163.37 241.403 163.898 241.748C164.425 242.089 164.824 242.579 165.095 243.218C165.365 243.857 165.489 244.62 165.466 245.507H164.416V245.143C164.397 244.163 164.185 243.423 163.779 242.924C163.377 242.425 162.789 242.175 162.015 242.175C161.203 242.175 160.58 242.439 160.146 242.966C159.716 243.493 159.502 244.245 159.502 245.22C159.502 246.172 159.716 246.912 160.146 247.439C160.58 247.962 161.193 248.223 161.987 248.223C162.528 248.223 162.999 248.099 163.401 247.852C163.807 247.6 164.126 247.238 164.36 246.767L165.319 247.138C165.02 247.796 164.579 248.307 163.996 248.671C163.417 249.03 162.761 249.21 162.029 249.21ZM159.138 245.507V244.646H164.913V245.507H159.138ZM170.414 249.21C169.719 249.21 169.131 249.035 168.65 248.685C168.169 248.33 167.805 247.852 167.558 247.25C167.311 246.643 167.187 245.964 167.187 245.213C167.187 244.448 167.311 243.766 167.558 243.169C167.81 242.567 168.179 242.093 168.664 241.748C169.149 241.403 169.747 241.23 170.456 241.23C171.147 241.23 171.739 241.405 172.234 241.755C172.729 242.105 173.107 242.581 173.368 243.183C173.634 243.785 173.767 244.462 173.767 245.213C173.767 245.969 173.634 246.648 173.368 247.25C173.102 247.852 172.719 248.33 172.22 248.685C171.721 249.035 171.119 249.21 170.414 249.21ZM167.012 249V238.92H168.048V243.309H167.936V249H167.012ZM170.309 248.251C170.836 248.251 171.275 248.118 171.625 247.852C171.975 247.586 172.236 247.224 172.409 246.767C172.586 246.305 172.675 245.787 172.675 245.213C172.675 244.644 172.589 244.13 172.416 243.673C172.243 243.216 171.98 242.854 171.625 242.588C171.275 242.322 170.829 242.189 170.288 242.189C169.761 242.189 169.322 242.317 168.972 242.574C168.627 242.831 168.368 243.188 168.195 243.645C168.022 244.098 167.936 244.62 167.936 245.213C167.936 245.796 168.022 246.319 168.195 246.781C168.368 247.238 168.629 247.598 168.979 247.859C169.329 248.12 169.772 248.251 170.309 248.251Z" fill="#64748B"/>
<rect x="216.333" y="55" width="20" height="35" rx="2" fill="#C1AEEF"/>
<rect x="216.333" y="91" width="20" height="85" rx="2" fill="#8355F1"/>
<rect x="216.333" y="177" width="20" height="32" rx="2" fill="#5F23EF"/>
<path d="M214.813 249V238.92H215.758L219.72 247.397L223.661 238.92H224.62V248.993H223.64V241.216L220.049 249H219.384L215.8 241.216V249H214.813ZM228.748 249.21C228.179 249.21 227.7 249.107 227.313 248.902C226.93 248.697 226.643 248.424 226.452 248.083C226.261 247.742 226.165 247.371 226.165 246.97C226.165 246.559 226.247 246.209 226.41 245.92C226.578 245.626 226.804 245.386 227.089 245.199C227.378 245.012 227.712 244.87 228.09 244.772C228.473 244.679 228.895 244.597 229.357 244.527C229.824 244.452 230.279 244.389 230.722 244.338C231.17 244.282 231.562 244.228 231.898 244.177L231.534 244.401C231.548 243.654 231.403 243.101 231.1 242.742C230.797 242.383 230.269 242.203 229.518 242.203C229 242.203 228.561 242.32 228.202 242.553C227.847 242.786 227.598 243.155 227.453 243.659L226.452 243.365C226.625 242.688 226.972 242.163 227.495 241.79C228.018 241.417 228.697 241.23 229.532 241.23C230.223 241.23 230.808 241.361 231.289 241.622C231.774 241.879 232.117 242.252 232.318 242.742C232.411 242.961 232.472 243.206 232.5 243.477C232.528 243.748 232.542 244.023 232.542 244.303V249H231.625V247.103L231.891 247.215C231.634 247.864 231.235 248.358 230.694 248.699C230.153 249.04 229.504 249.21 228.748 249.21ZM228.867 248.321C229.348 248.321 229.768 248.235 230.127 248.062C230.486 247.889 230.776 247.654 230.995 247.355C231.214 247.052 231.357 246.711 231.422 246.333C231.478 246.09 231.508 245.824 231.513 245.535C231.518 245.241 231.52 245.022 231.52 244.877L231.912 245.08C231.562 245.127 231.182 245.173 230.771 245.22C230.365 245.267 229.964 245.32 229.567 245.381C229.175 245.442 228.82 245.514 228.503 245.598C228.288 245.659 228.081 245.745 227.88 245.857C227.679 245.964 227.514 246.109 227.383 246.291C227.257 246.473 227.194 246.699 227.194 246.97C227.194 247.189 227.248 247.402 227.355 247.607C227.467 247.812 227.644 247.983 227.887 248.118C228.134 248.253 228.461 248.321 228.867 248.321ZM234.364 249V241.44H235.288V243.26L235.106 243.022C235.19 242.798 235.3 242.593 235.435 242.406C235.57 242.215 235.717 242.058 235.876 241.937C236.072 241.764 236.301 241.634 236.562 241.545C236.823 241.452 237.087 241.398 237.353 241.384C237.619 241.365 237.862 241.384 238.081 241.44V242.406C237.806 242.336 237.505 242.32 237.178 242.357C236.851 242.394 236.55 242.525 236.275 242.749C236.023 242.945 235.834 243.181 235.708 243.456C235.582 243.727 235.498 244.016 235.456 244.324C235.414 244.627 235.393 244.928 235.393 245.227V249H234.364Z" fill="#64748B"/>
<rect x="279.667" y="82" width="20" height="34" rx="2" fill="#C1AEEF"/>
<rect x="279.667" y="117" width="20" height="37" rx="2" fill="#8355F1"/>
<rect x="279.667" y="155" width="20" height="54" rx="2" fill="#5F23EF"/>
<path d="M278.447 249L281.919 238.92H283.284L286.756 249H285.685L282.388 239.494H282.794L279.518 249H278.447ZM279.994 246.557V245.591H285.202V246.557H279.994ZM291.415 249.21C290.719 249.21 290.131 249.035 289.651 248.685C289.17 248.33 288.806 247.852 288.559 247.25C288.311 246.643 288.188 245.964 288.188 245.213C288.188 244.448 288.311 243.766 288.559 243.169C288.811 242.567 289.179 242.093 289.665 241.748C290.15 241.403 290.747 241.23 291.457 241.23C292.147 241.23 292.74 241.405 293.235 241.755C293.729 242.105 294.107 242.581 294.369 243.183C294.635 243.785 294.768 244.462 294.768 245.213C294.768 245.969 294.635 246.648 294.369 247.25C294.103 247.852 293.72 248.33 293.221 248.685C292.721 249.035 292.119 249.21 291.415 249.21ZM288.013 252.36V241.44H288.937V247.131H289.049V252.36H288.013ZM291.31 248.251C291.837 248.251 292.276 248.118 292.626 247.852C292.976 247.586 293.237 247.224 293.41 246.767C293.587 246.305 293.676 245.787 293.676 245.213C293.676 244.644 293.589 244.13 293.417 243.673C293.244 243.216 292.98 242.854 292.626 242.588C292.276 242.322 291.83 242.189 291.289 242.189C290.761 242.189 290.323 242.317 289.973 242.574C289.627 242.831 289.368 243.188 289.196 243.645C289.023 244.098 288.937 244.62 288.937 245.213C288.937 245.796 289.023 246.319 289.196 246.781C289.368 247.238 289.63 247.598 289.98 247.859C290.33 248.12 290.773 248.251 291.31 248.251ZM296.305 249V241.44H297.229V243.26L297.047 243.022C297.131 242.798 297.241 242.593 297.376 242.406C297.511 242.215 297.658 242.058 297.817 241.937C298.013 241.764 298.242 241.634 298.503 241.545C298.764 241.452 299.028 241.398 299.294 241.384C299.56 241.365 299.803 241.384 300.022 241.44V242.406C299.747 242.336 299.446 242.32 299.119 242.357C298.792 242.394 298.491 242.525 298.216 242.749C297.964 242.945 297.775 243.181 297.649 243.456C297.523 243.727 297.439 244.016 297.397 244.324C297.355 244.627 297.334 244.928 297.334 245.227V249H296.305Z" fill="#64748B"/>
<rect x="343" y="37" width="20" height="41" rx="2" fill="#C1AEEF"/>
<rect x="343" y="79" width="20" height="58" rx="2" fill="#8355F1"/>
<rect x="343" y="138" width="20" height="71" rx="2" fill="#5F23EF"/>
<path d="M340.48 249V238.92H341.425L345.387 247.397L349.328 238.92H350.287V248.993H349.307V241.216L345.716 249H345.051L341.467 241.216V249H340.48ZM354.414 249.21C353.845 249.21 353.367 249.107 352.979 248.902C352.597 248.697 352.31 248.424 352.118 248.083C351.927 247.742 351.831 247.371 351.831 246.97C351.831 246.559 351.913 246.209 352.076 245.92C352.244 245.626 352.471 245.386 352.755 245.199C353.045 245.012 353.378 244.87 353.756 244.772C354.139 244.679 354.561 244.597 355.023 244.527C355.49 244.452 355.945 244.389 356.388 244.338C356.836 244.282 357.228 244.228 357.564 244.177L357.2 244.401C357.214 243.654 357.07 243.101 356.766 242.742C356.463 242.383 355.936 242.203 355.184 242.203C354.666 242.203 354.228 242.32 353.868 242.553C353.514 242.786 353.264 243.155 353.119 243.659L352.118 243.365C352.291 242.688 352.639 242.163 353.161 241.79C353.684 241.417 354.363 241.23 355.198 241.23C355.889 241.23 356.475 241.361 356.955 241.622C357.441 241.879 357.784 242.252 357.984 242.742C358.078 242.961 358.138 243.206 358.166 243.477C358.194 243.748 358.208 244.023 358.208 244.303V249H357.291V247.103L357.557 247.215C357.301 247.864 356.902 248.358 356.36 248.699C355.819 249.04 355.17 249.21 354.414 249.21ZM354.533 248.321C355.014 248.321 355.434 248.235 355.793 248.062C356.153 247.889 356.442 247.654 356.661 247.355C356.881 247.052 357.023 246.711 357.088 246.333C357.144 246.09 357.175 245.824 357.179 245.535C357.184 245.241 357.186 245.022 357.186 244.877L357.578 245.08C357.228 245.127 356.848 245.173 356.437 245.22C356.031 245.267 355.63 245.32 355.233 245.381C354.841 245.442 354.487 245.514 354.169 245.598C353.955 245.659 353.747 245.745 353.546 245.857C353.346 245.964 353.18 246.109 353.049 246.291C352.923 246.473 352.86 246.699 352.86 246.97C352.86 247.189 352.914 247.402 353.021 247.607C353.133 247.812 353.311 247.983 353.553 248.118C353.801 248.253 354.127 248.321 354.533 248.321ZM360.685 252.36L362.148 248.391L362.169 249.567L358.858 241.44H359.95L362.666 248.237H362.218L364.724 241.44H365.774L361.714 252.36H360.685Z" fill="#64748B"/>
<rect x="406.333" y="31" width="20" height="57" rx="2" fill="#C1AEEF"/>
<rect x="406.333" y="89" width="20" height="58" rx="2" fill="#8355F1"/>
<rect x="406.333" y="148" width="20" height="61" rx="2" fill="#5F23EF"/>
<path d="M407.035 249.203C406.363 249.203 405.787 249.016 405.306 248.643C404.826 248.27 404.501 247.77 404.333 247.145L405.362 246.9C405.446 247.269 405.64 247.581 405.943 247.838C406.251 248.09 406.613 248.216 407.028 248.216C407.29 248.216 407.553 248.153 407.819 248.027C408.09 247.901 408.302 247.693 408.456 247.404C408.559 247.203 408.617 246.986 408.631 246.753C408.65 246.515 408.659 246.23 408.659 245.899V238.92H409.695V245.899C409.695 246.179 409.693 246.433 409.688 246.662C409.684 246.886 409.658 247.103 409.611 247.313C409.569 247.518 409.488 247.726 409.366 247.936C409.124 248.361 408.797 248.678 408.386 248.888C407.98 249.098 407.53 249.203 407.035 249.203ZM414.698 249.189C414.246 249.189 413.849 249.119 413.508 248.979C413.172 248.839 412.885 248.65 412.647 248.412C412.414 248.174 412.225 247.903 412.08 247.6C411.936 247.292 411.831 246.968 411.765 246.627C411.7 246.282 411.667 245.939 411.667 245.598V241.44H412.703V245.297C412.703 245.712 412.743 246.097 412.822 246.452C412.902 246.807 413.028 247.117 413.2 247.383C413.378 247.644 413.604 247.847 413.879 247.992C414.159 248.137 414.498 248.209 414.894 248.209C415.258 248.209 415.578 248.146 415.853 248.02C416.133 247.894 416.367 247.714 416.553 247.481C416.745 247.243 416.889 246.956 416.987 246.62C417.085 246.279 417.134 245.897 417.134 245.472L417.862 245.633C417.862 246.408 417.727 247.059 417.456 247.586C417.186 248.113 416.812 248.512 416.336 248.783C415.86 249.054 415.314 249.189 414.698 249.189ZM417.239 249V247.138H417.134V241.44H418.163V249H417.239ZM425.58 249V245.143C425.58 244.723 425.54 244.338 425.461 243.988C425.382 243.633 425.253 243.325 425.076 243.064C424.903 242.798 424.677 242.593 424.397 242.448C424.122 242.303 423.786 242.231 423.389 242.231C423.025 242.231 422.703 242.294 422.423 242.42C422.148 242.546 421.914 242.728 421.723 242.966C421.536 243.199 421.394 243.484 421.296 243.82C421.198 244.156 421.149 244.539 421.149 244.968L420.421 244.807C420.421 244.032 420.556 243.381 420.827 242.854C421.098 242.327 421.471 241.928 421.947 241.657C422.423 241.386 422.969 241.251 423.585 241.251C424.038 241.251 424.432 241.321 424.768 241.461C425.109 241.601 425.396 241.79 425.629 242.028C425.867 242.266 426.058 242.539 426.203 242.847C426.348 243.15 426.453 243.475 426.518 243.82C426.583 244.161 426.616 244.501 426.616 244.842V249H425.58ZM420.113 249V241.44H421.044V243.302H421.149V249H420.113Z" fill="#64748B"/>
<rect x="469.667" y="16" width="20" height="59" rx="2" fill="#C1AEEF"/>
<rect x="469.667" y="76" width="20" height="45" rx="2" fill="#8355F1"/>
<rect x="469.667" y="122" width="20" height="87" rx="2" fill="#5F23EF"/>
<path d="M472.869 249.203C472.197 249.203 471.62 249.016 471.14 248.643C470.659 248.27 470.335 247.77 470.167 247.145L471.196 246.9C471.28 247.269 471.473 247.581 471.777 247.838C472.085 248.09 472.446 248.216 472.862 248.216C473.123 248.216 473.387 248.153 473.653 248.027C473.923 247.901 474.136 247.693 474.29 247.404C474.392 247.203 474.451 246.986 474.465 246.753C474.483 246.515 474.493 246.23 474.493 245.899V238.92H475.529V245.899C475.529 246.179 475.526 246.433 475.522 246.662C475.517 246.886 475.491 247.103 475.445 247.313C475.403 247.518 475.321 247.726 475.2 247.936C474.957 248.361 474.63 248.678 474.22 248.888C473.814 249.098 473.363 249.203 472.869 249.203ZM480.532 249.189C480.079 249.189 479.682 249.119 479.342 248.979C479.006 248.839 478.719 248.65 478.481 248.412C478.247 248.174 478.058 247.903 477.914 247.6C477.769 247.292 477.664 246.968 477.599 246.627C477.533 246.282 477.501 245.939 477.501 245.598V241.44H478.537V245.297C478.537 245.712 478.576 246.097 478.656 246.452C478.735 246.807 478.861 247.117 479.034 247.383C479.211 247.644 479.437 247.847 479.713 247.992C479.993 248.137 480.331 248.209 480.728 248.209C481.092 248.209 481.411 248.146 481.687 248.02C481.967 247.894 482.2 247.714 482.387 247.481C482.578 247.243 482.723 246.956 482.821 246.62C482.919 246.279 482.968 245.897 482.968 245.472L483.696 245.633C483.696 246.408 483.56 247.059 483.29 247.586C483.019 248.113 482.646 248.512 482.17 248.783C481.694 249.054 481.148 249.189 480.532 249.189ZM483.073 249V247.138H482.968V241.44H483.997V249H483.073ZM486.093 249V238.71H487.122V249H486.093Z" fill="#64748B"/>
<rect x="533" y="12" width="20" height="46" rx="2" fill="#C1AEEF"/>
<rect x="533" y="59" width="20" height="74" rx="2" fill="#8355F1"/>
<rect x="533" y="134" width="20" height="75" rx="2" fill="#5F23EF"/>
<path d="M530.28 249L533.752 238.92H535.117L538.589 249H537.518L534.221 239.494H534.627L531.351 249H530.28ZM531.827 246.557V245.591H537.035V246.557H531.827ZM542.744 249.189C542.291 249.189 541.895 249.119 541.554 248.979C541.218 248.839 540.931 248.65 540.693 248.412C540.46 248.174 540.271 247.903 540.126 247.6C539.981 247.292 539.876 246.968 539.811 246.627C539.746 246.282 539.713 245.939 539.713 245.598V241.44H540.749V245.297C540.749 245.712 540.789 246.097 540.868 246.452C540.947 246.807 541.073 247.117 541.246 247.383C541.423 247.644 541.65 247.847 541.925 247.992C542.205 248.137 542.543 248.209 542.94 248.209C543.304 248.209 543.624 248.146 543.899 248.02C544.179 247.894 544.412 247.714 544.599 247.481C544.79 247.243 544.935 246.956 545.033 246.62C545.131 246.279 545.18 245.897 545.18 245.472L545.908 245.633C545.908 246.408 545.773 247.059 545.502 247.586C545.231 248.113 544.858 248.512 544.382 248.783C543.906 249.054 543.36 249.189 542.744 249.189ZM545.285 249V247.138H545.18V241.44H546.209V249H545.285ZM551.169 252.57C550.781 252.57 550.399 252.512 550.021 252.395C549.647 252.283 549.302 252.103 548.985 251.856C548.667 251.613 548.401 251.296 548.187 250.904L549.118 250.386C549.328 250.806 549.622 251.107 550 251.289C550.382 251.476 550.772 251.569 551.169 251.569C551.715 251.569 552.156 251.466 552.492 251.261C552.832 251.06 553.08 250.762 553.234 250.365C553.388 249.968 553.462 249.474 553.458 248.881V246.865H553.577V241.44H554.494V248.895C554.494 249.11 554.487 249.315 554.473 249.511C554.463 249.712 554.442 249.908 554.41 250.099C554.321 250.664 554.137 251.128 553.857 251.492C553.581 251.856 553.217 252.127 552.765 252.304C552.317 252.481 551.785 252.57 551.169 252.57ZM551.099 249.21C550.394 249.21 549.792 249.035 549.293 248.685C548.793 248.33 548.411 247.852 548.145 247.25C547.879 246.648 547.746 245.969 547.746 245.213C547.746 244.462 547.876 243.785 548.138 243.183C548.404 242.581 548.784 242.105 549.279 241.755C549.773 241.405 550.366 241.23 551.057 241.23C551.766 241.23 552.363 241.403 552.849 241.748C553.334 242.093 553.7 242.567 553.948 243.169C554.2 243.766 554.326 244.448 554.326 245.213C554.326 245.964 554.202 246.643 553.955 247.25C553.707 247.852 553.343 248.33 552.863 248.685C552.382 249.035 551.794 249.21 551.099 249.21ZM551.204 248.251C551.74 248.251 552.184 248.12 552.534 247.859C552.884 247.598 553.145 247.238 553.318 246.781C553.49 246.319 553.577 245.796 553.577 245.213C553.577 244.62 553.49 244.098 553.318 243.645C553.145 243.188 552.884 242.831 552.534 242.574C552.188 242.317 551.752 242.189 551.225 242.189C550.683 242.189 550.235 242.322 549.881 242.588C549.526 242.854 549.262 243.216 549.09 243.673C548.922 244.13 548.838 244.644 548.838 245.213C548.838 245.787 548.924 246.305 549.097 246.767C549.274 247.224 549.538 247.586 549.888 247.852C550.238 248.118 550.676 248.251 551.204 248.251Z" fill="#64748B"/>
<rect x="596.333" y="25" width="20" height="41" rx="2" fill="#C1AEEF"/>
<rect x="596.333" y="67" width="20" height="55" rx="2" fill="#8355F1"/>
<rect x="596.333" y="123" width="20" height="86" rx="2" fill="#5F23EF"/>
<path d="M598.313 249.21C597.609 249.21 596.974 249.093 596.409 248.86C595.849 248.622 595.385 248.286 595.016 247.852C594.652 247.418 594.414 246.902 594.302 246.305L595.352 246.13C595.52 246.783 595.875 247.297 596.416 247.67C596.958 248.039 597.604 248.223 598.355 248.223C598.85 248.223 599.293 248.146 599.685 247.992C600.077 247.833 600.385 247.609 600.609 247.32C600.833 247.031 600.945 246.688 600.945 246.291C600.945 246.03 600.899 245.808 600.805 245.626C600.712 245.439 600.588 245.285 600.434 245.164C600.28 245.043 600.112 244.942 599.93 244.863C599.748 244.779 599.571 244.711 599.398 244.66L596.843 243.897C596.535 243.808 596.251 243.696 595.989 243.561C595.728 243.421 595.499 243.255 595.303 243.064C595.112 242.868 594.963 242.639 594.855 242.378C594.748 242.117 594.694 241.818 594.694 241.482C594.694 240.913 594.844 240.42 595.142 240.005C595.441 239.59 595.849 239.27 596.367 239.046C596.885 238.822 597.476 238.712 598.138 238.717C598.81 238.717 599.41 238.836 599.937 239.074C600.469 239.312 600.908 239.653 601.253 240.096C601.599 240.535 601.827 241.055 601.939 241.657L600.861 241.853C600.791 241.414 600.63 241.034 600.378 240.712C600.126 240.39 599.804 240.143 599.412 239.97C599.025 239.793 598.598 239.702 598.131 239.697C597.679 239.697 597.275 239.774 596.92 239.928C596.57 240.077 596.293 240.283 596.087 240.544C595.882 240.805 595.779 241.104 595.779 241.44C595.779 241.781 595.873 242.054 596.059 242.259C596.251 242.464 596.484 242.625 596.759 242.742C597.039 242.859 597.31 242.954 597.571 243.029L599.545 243.61C599.751 243.666 599.991 243.748 600.266 243.855C600.546 243.958 600.817 244.107 601.078 244.303C601.344 244.494 601.564 244.746 601.736 245.059C601.909 245.372 601.995 245.768 601.995 246.249C601.995 246.716 601.902 247.133 601.715 247.502C601.533 247.871 601.274 248.181 600.938 248.433C600.607 248.685 600.217 248.876 599.769 249.007C599.326 249.142 598.841 249.21 598.313 249.21ZM606.639 249.21C605.902 249.21 605.263 249.047 604.721 248.72C604.185 248.393 603.767 247.934 603.468 247.341C603.17 246.748 603.02 246.053 603.02 245.255C603.02 244.429 603.167 243.715 603.461 243.113C603.755 242.511 604.168 242.047 604.7 241.72C605.237 241.393 605.869 241.23 606.597 241.23C607.344 241.23 607.981 241.403 608.508 241.748C609.036 242.089 609.435 242.579 609.705 243.218C609.976 243.857 610.1 244.62 610.076 245.507H609.026V245.143C609.008 244.163 608.795 243.423 608.389 242.924C607.988 242.425 607.4 242.175 606.625 242.175C605.813 242.175 605.19 242.439 604.756 242.966C604.327 243.493 604.112 244.245 604.112 245.22C604.112 246.172 604.327 246.912 604.756 247.439C605.19 247.962 605.804 248.223 606.597 248.223C607.139 248.223 607.61 248.099 608.011 247.852C608.417 247.6 608.737 247.238 608.97 246.767L609.929 247.138C609.631 247.796 609.19 248.307 608.606 248.671C608.028 249.03 607.372 249.21 606.639 249.21ZM603.748 245.507V244.646H609.523V245.507H603.748ZM614.82 249.21C614.124 249.21 613.536 249.035 613.056 248.685C612.575 248.33 612.211 247.852 611.964 247.25C611.716 246.643 611.593 245.964 611.593 245.213C611.593 244.448 611.716 243.766 611.964 243.169C612.216 242.567 612.584 242.093 613.07 241.748C613.555 241.403 614.152 241.23 614.862 241.23C615.552 241.23 616.145 241.405 616.64 241.755C617.134 242.105 617.512 242.581 617.774 243.183C618.04 243.785 618.173 244.462 618.173 245.213C618.173 245.969 618.04 246.648 617.774 247.25C617.508 247.852 617.125 248.33 616.626 248.685C616.126 249.035 615.524 249.21 614.82 249.21ZM611.418 252.36V241.44H612.342V247.131H612.454V252.36H611.418ZM614.715 248.251C615.242 248.251 615.681 248.118 616.031 247.852C616.381 247.586 616.642 247.224 616.815 246.767C616.992 246.305 617.081 245.787 617.081 245.213C617.081 244.644 616.994 244.13 616.822 243.673C616.649 243.216 616.385 242.854 616.031 242.588C615.681 242.322 615.235 242.189 614.694 242.189C614.166 242.189 613.728 242.317 613.378 242.574C613.032 242.831 612.773 243.188 612.601 243.645C612.428 244.098 612.342 244.62 612.342 245.213C612.342 245.796 612.428 246.319 612.601 246.781C612.773 247.238 613.035 247.598 613.385 247.859C613.735 248.12 614.178 248.251 614.715 248.251Z" fill="#64748B"/>
<rect x="659.667" y="60" width="20" height="57" rx="2" fill="#C1AEEF"/>
<rect x="659.667" y="118" width="20" height="36" rx="2" fill="#8355F1"/>
<rect x="659.667" y="155" width="20" height="54" rx="2" fill="#5F23EF"/>
<path d="M662.728 249.21C661.724 249.21 660.877 248.988 660.187 248.545C659.496 248.097 658.973 247.479 658.619 246.69C658.264 245.901 658.087 244.991 658.087 243.96C658.087 242.929 658.264 242.019 658.619 241.23C658.973 240.441 659.496 239.825 660.187 239.382C660.877 238.934 661.724 238.71 662.728 238.71C663.736 238.71 664.583 238.934 665.269 239.382C665.959 239.825 666.482 240.441 666.837 241.23C667.196 242.019 667.376 242.929 667.376 243.96C667.376 244.991 667.196 245.901 666.837 246.69C666.482 247.479 665.959 248.097 665.269 248.545C664.583 248.988 663.736 249.21 662.728 249.21ZM662.728 248.223C663.516 248.223 664.174 248.043 664.702 247.684C665.229 247.325 665.623 246.825 665.885 246.186C666.151 245.542 666.284 244.8 666.284 243.96C666.284 243.12 666.151 242.38 665.885 241.741C665.623 241.102 665.229 240.602 664.702 240.243C664.174 239.884 663.516 239.702 662.728 239.697C661.939 239.697 661.283 239.877 660.761 240.236C660.238 240.595 659.844 241.097 659.578 241.741C659.316 242.38 659.183 243.12 659.179 243.96C659.174 244.8 659.302 245.54 659.564 246.179C659.83 246.814 660.226 247.313 660.754 247.677C661.281 248.036 661.939 248.218 662.728 248.223ZM671.914 249.21C671.153 249.21 670.509 249.04 669.982 248.699C669.454 248.358 669.053 247.889 668.778 247.292C668.507 246.69 668.367 245.999 668.358 245.22C668.367 244.427 668.512 243.731 668.792 243.134C669.072 242.532 669.475 242.065 670.003 241.734C670.53 241.398 671.169 241.23 671.921 241.23C672.686 241.23 673.351 241.417 673.916 241.79C674.485 242.163 674.875 242.674 675.085 243.323L674.077 243.645C673.899 243.192 673.617 242.842 673.23 242.595C672.847 242.343 672.408 242.217 671.914 242.217C671.358 242.217 670.899 242.345 670.535 242.602C670.171 242.854 669.9 243.206 669.723 243.659C669.545 244.112 669.454 244.632 669.45 245.22C669.459 246.125 669.669 246.853 670.08 247.404C670.49 247.95 671.102 248.223 671.914 248.223C672.427 248.223 672.863 248.106 673.223 247.873C673.587 247.635 673.862 247.29 674.049 246.837L675.085 247.145C674.805 247.817 674.394 248.33 673.853 248.685C673.311 249.035 672.665 249.21 671.914 249.21ZM680.645 249C680.221 249.089 679.801 249.124 679.385 249.105C678.975 249.086 678.606 248.998 678.279 248.839C677.957 248.68 677.712 248.433 677.544 248.097C677.409 247.817 677.334 247.535 677.32 247.25C677.311 246.961 677.306 246.632 677.306 246.263V239.34H678.328V246.221C678.328 246.538 678.331 246.804 678.335 247.019C678.345 247.229 678.394 247.416 678.482 247.579C678.65 247.892 678.916 248.078 679.28 248.139C679.649 248.2 680.104 248.186 680.645 248.097V249ZM675.689 242.322V241.44H680.645V242.322H675.689Z" fill="#64748B"/>
<rect x="723" y="82" width="20" height="51" rx="2" fill="#C1AEEF"/>
<rect x="723" y="134" width="20" height="20" rx="2" fill="#8355F1"/>
<rect x="723" y="155" width="20" height="54" rx="2" fill="#5F23EF"/>
<path d="M721.48 249V238.92H722.516L728.067 247.18V238.92H729.103V249H728.067L722.516 240.733V249H721.48ZM734.221 249.21C733.47 249.21 732.828 249.04 732.296 248.699C731.764 248.358 731.356 247.887 731.071 247.285C730.786 246.683 730.644 245.992 730.644 245.213C730.644 244.42 730.789 243.724 731.078 243.127C731.367 242.53 731.778 242.065 732.31 241.734C732.847 241.398 733.484 241.23 734.221 241.23C734.977 241.23 735.621 241.4 736.153 241.741C736.69 242.077 737.098 242.546 737.378 243.148C737.663 243.745 737.805 244.434 737.805 245.213C737.805 246.006 737.663 246.704 737.378 247.306C737.093 247.903 736.683 248.37 736.146 248.706C735.609 249.042 734.968 249.21 734.221 249.21ZM734.221 248.223C735.061 248.223 735.686 247.945 736.097 247.39C736.508 246.83 736.713 246.104 736.713 245.213C736.713 244.298 736.505 243.57 736.09 243.029C735.679 242.488 735.056 242.217 734.221 242.217C733.656 242.217 733.19 242.345 732.821 242.602C732.457 242.854 732.184 243.206 732.002 243.659C731.825 244.107 731.736 244.625 731.736 245.213C731.736 246.123 731.946 246.853 732.366 247.404C732.786 247.95 733.404 248.223 734.221 248.223ZM741.12 249L738.376 241.44H739.419L741.652 247.656L743.871 241.44H744.928L742.184 249H741.12Z" fill="#64748B"/>
<rect x="786.333" y="109" width="20" height="23" rx="2" fill="#C1AEEF"/>
<rect x="786.333" y="133" width="20" height="32" rx="2" fill="#8355F1"/>
<rect x="786.333" y="166" width="20" height="43" rx="2" fill="#5F23EF"/>
<path d="M784.313 249V238.92H787.372C787.48 238.92 787.662 238.922 787.918 238.927C788.18 238.932 788.429 238.95 788.667 238.983C789.433 239.09 790.072 239.375 790.585 239.837C791.099 240.299 791.484 240.887 791.74 241.601C791.997 242.315 792.125 243.101 792.125 243.96C792.125 244.819 791.997 245.605 791.74 246.319C791.484 247.033 791.099 247.621 790.585 248.083C790.072 248.545 789.433 248.83 788.667 248.937C788.434 248.965 788.184 248.984 787.918 248.993C787.652 248.998 787.47 249 787.372 249H784.313ZM785.377 248.013H787.372C787.564 248.013 787.769 248.008 787.988 247.999C788.212 247.985 788.404 247.962 788.562 247.929C789.15 247.826 789.624 247.588 789.983 247.215C790.347 246.842 790.613 246.375 790.781 245.815C790.949 245.25 791.033 244.632 791.033 243.96C791.033 243.283 790.949 242.663 790.781 242.098C790.613 241.533 790.347 241.067 789.983 240.698C789.619 240.329 789.146 240.094 788.562 239.991C788.404 239.958 788.21 239.937 787.981 239.928C787.757 239.914 787.554 239.907 787.372 239.907H785.377V248.013ZM796.919 249.21C796.181 249.21 795.542 249.047 795.001 248.72C794.464 248.393 794.046 247.934 793.748 247.341C793.449 246.748 793.3 246.053 793.3 245.255C793.3 244.429 793.447 243.715 793.741 243.113C794.035 242.511 794.448 242.047 794.98 241.72C795.516 241.393 796.149 241.23 796.877 241.23C797.623 241.23 798.26 241.403 798.788 241.748C799.315 242.089 799.714 242.579 799.985 243.218C800.255 243.857 800.379 244.62 800.356 245.507H799.306V245.143C799.287 244.163 799.075 243.423 798.669 242.924C798.267 242.425 797.679 242.175 796.905 242.175C796.093 242.175 795.47 242.439 795.036 242.966C794.606 243.493 794.392 244.245 794.392 245.22C794.392 246.172 794.606 246.912 795.036 247.439C795.47 247.962 796.083 248.223 796.877 248.223C797.418 248.223 797.889 248.099 798.291 247.852C798.697 247.6 799.016 247.238 799.25 246.767L800.209 247.138C799.91 247.796 799.469 248.307 798.886 248.671C798.307 249.03 797.651 249.21 796.919 249.21ZM794.028 245.507V244.646H799.803V245.507H794.028ZM805.045 249.21C804.284 249.21 803.64 249.04 803.113 248.699C802.586 248.358 802.184 247.889 801.909 247.292C801.638 246.69 801.498 245.999 801.489 245.22C801.498 244.427 801.643 243.731 801.923 243.134C802.203 242.532 802.607 242.065 803.134 241.734C803.661 241.398 804.301 241.23 805.052 241.23C805.817 241.23 806.482 241.417 807.047 241.79C807.616 242.163 808.006 242.674 808.216 243.323L807.208 243.645C807.031 243.192 806.748 242.842 806.361 242.595C805.978 242.343 805.54 242.217 805.045 242.217C804.49 242.217 804.03 242.345 803.666 242.602C803.302 242.854 803.031 243.206 802.854 243.659C802.677 244.112 802.586 244.632 802.581 245.22C802.59 246.125 802.8 246.853 803.211 247.404C803.622 247.95 804.233 248.223 805.045 248.223C805.558 248.223 805.995 248.106 806.354 247.873C806.718 247.635 806.993 247.29 807.18 246.837L808.216 247.145C807.936 247.817 807.525 248.33 806.984 248.685C806.443 249.035 805.796 249.21 805.045 249.21Z" fill="#64748B"/>
</svg>
