<svg width="64" height="59" viewBox="0 0 64 59" fill="none" xmlns="http://www.w3.org/2000/svg">
<rect width="64" height="59" rx="5" fill="#DE8155"/>
<path d="M31.0625 19.625C32.2246 19.625 33.3184 19.8447 34.3438 20.2842C35.3691 20.7236 36.2627 21.3291 37.0244 22.1006C37.7861 22.8721 38.3867 23.7656 38.8262 24.7812C39.2656 25.7969 39.4902 26.8906 39.5 28.0625C39.5 28.6777 39.4609 29.2539 39.3828 29.791C39.3047 30.3281 39.1826 30.8408 39.0166 31.3291C38.8506 31.8174 38.6357 32.3008 38.3721 32.7793C38.1084 33.2578 37.7959 33.7461 37.4346 34.2441C37.1514 34.6348 36.9023 34.9863 36.6875 35.2988C36.4727 35.6113 36.2969 35.9238 36.1602 36.2363C36.0234 36.5488 35.9209 36.8906 35.8525 37.2617C35.7842 37.6328 35.75 38.0674 35.75 38.5654V41.1875C35.75 41.5781 35.6768 41.9443 35.5303 42.2861C35.3838 42.6279 35.1836 42.9258 34.9297 43.1797C34.6758 43.4336 34.3779 43.6338 34.0361 43.7803C33.6943 43.9268 33.3281 44 32.9375 44H29.1875C28.7969 44 28.4307 43.9268 28.0889 43.7803C27.7471 43.6338 27.4492 43.4336 27.1953 43.1797C26.9414 42.9258 26.7412 42.6279 26.5947 42.2861C26.4482 41.9443 26.375 41.5781 26.375 41.1875V38.5508C26.375 38.0527 26.3408 37.623 26.2725 37.2617C26.2041 36.9004 26.1016 36.5635 25.9648 36.251C25.8281 35.9385 25.6523 35.6211 25.4375 35.2988C25.2227 34.9766 24.9736 34.625 24.6904 34.2441C24.3291 33.7461 24.0215 33.2627 23.7676 32.7939C23.5137 32.3252 23.2988 31.8418 23.123 31.3438C22.9473 30.8457 22.8203 30.3281 22.7422 29.791C22.6641 29.2539 22.625 28.6777 22.625 28.0625C22.625 26.9004 22.8447 25.8066 23.2842 24.7812C23.7236 23.7559 24.3291 22.8623 25.1006 22.1006C25.8721 21.3389 26.7656 20.7383 27.7812 20.2988C28.7969 19.8594 29.8906 19.6348 31.0625 19.625ZM33.875 41.1875V40.25H28.25V41.1875C28.25 41.4414 28.3428 41.6611 28.5283 41.8467C28.7139 42.0322 28.9336 42.125 29.1875 42.125H32.9375C33.1914 42.125 33.4111 42.0322 33.5967 41.8467C33.7822 41.6611 33.875 41.4414 33.875 41.1875ZM37.625 28.0625C37.625 27.1543 37.4541 26.3047 37.1123 25.5137C36.7705 24.7227 36.3018 24.0244 35.7061 23.4189C35.1104 22.8135 34.417 22.3447 33.626 22.0127C32.835 21.6807 31.9805 21.5098 31.0625 21.5C30.1543 21.5 29.3047 21.6709 28.5137 22.0127C27.7227 22.3545 27.0244 22.8232 26.4189 23.4189C25.8135 24.0146 25.3447 24.708 25.0127 25.499C24.6807 26.29 24.5098 27.1445 24.5 28.0625C24.5 28.9316 24.5879 29.6787 24.7637 30.3037C24.9395 30.9287 25.1689 31.4854 25.4521 31.9736C25.7354 32.4619 26.0332 32.9209 26.3457 33.3506C26.6582 33.7803 26.9561 34.2295 27.2393 34.6982C27.5225 35.167 27.7568 35.6943 27.9424 36.2803C28.1279 36.8662 28.2305 37.5645 28.25 38.375H33.875C33.8848 37.5645 33.9824 36.8711 34.168 36.2949C34.3535 35.7188 34.5879 35.1914 34.8711 34.7129C35.1543 34.2344 35.4521 33.7852 35.7646 33.3652C36.0771 32.9453 36.375 32.4863 36.6582 31.9883C36.9414 31.4902 37.1709 30.9287 37.3467 30.3037C37.5225 29.6787 37.6152 28.9316 37.625 28.0625ZM31.0625 17.75C30.8086 17.75 30.5889 17.6572 30.4033 17.4717C30.2178 17.2861 30.125 17.0664 30.125 16.8125V14.9375C30.125 14.6836 30.2178 14.4639 30.4033 14.2783C30.5889 14.0928 30.8086 14 31.0625 14C31.3164 14 31.5361 14.0928 31.7217 14.2783C31.9072 14.4639 32 14.6836 32 14.9375V16.8125C32 17.0664 31.9072 17.2861 31.7217 17.4717C31.5361 17.6572 31.3164 17.75 31.0625 17.75ZM19.8125 27.5938H17.9375C17.6836 27.5938 17.4639 27.501 17.2783 27.3154C17.0928 27.1299 17 26.9102 17 26.6562C17 26.4023 17.0928 26.1826 17.2783 25.9971C17.4639 25.8115 17.6836 25.7188 17.9375 25.7188H19.8125C20.0664 25.7188 20.2861 25.8115 20.4717 25.9971C20.6572 26.1826 20.75 26.4023 20.75 26.6562C20.75 26.9102 20.6572 27.1299 20.4717 27.3154C20.2861 27.501 20.0664 27.5938 19.8125 27.5938ZM20.5889 31.417C20.8428 31.417 21.0625 31.5098 21.248 31.6953C21.4336 31.8809 21.5264 32.1055 21.5264 32.3691C21.5264 32.5645 21.4727 32.7354 21.3652 32.8818C21.2578 33.0283 21.1113 33.1455 20.9258 33.2334C20.8184 33.2822 20.6719 33.3457 20.4863 33.4238C20.3008 33.502 20.1006 33.585 19.8857 33.6729C19.6709 33.7607 19.4756 33.834 19.2998 33.8926C19.124 33.9512 18.9678 33.9854 18.8311 33.9951C18.5771 33.9951 18.3574 33.9023 18.1719 33.7168C17.9863 33.5312 17.8936 33.3066 17.8936 33.043C17.8936 32.8477 17.9473 32.6768 18.0547 32.5303C18.1621 32.3838 18.3086 32.2666 18.4941 32.1787C18.6016 32.1396 18.748 32.0762 18.9336 31.9883C19.1191 31.9004 19.3193 31.8174 19.5342 31.7393C19.749 31.6611 19.9443 31.5879 20.1201 31.5195C20.2959 31.4512 20.4521 31.417 20.5889 31.417ZM22.8154 21.9688C22.8154 22.2227 22.7227 22.4424 22.5371 22.6279C22.3516 22.8135 22.1318 22.9062 21.8779 22.9062C21.7021 22.9062 21.541 22.8623 21.3945 22.7744L19.7979 21.793C19.6611 21.7051 19.5537 21.5928 19.4756 21.4561C19.3975 21.3193 19.3535 21.1631 19.3438 20.9873C19.3438 20.7334 19.4365 20.5137 19.6221 20.3281C19.8076 20.1426 20.0273 20.0498 20.2812 20.0498C20.4375 20.0498 20.5986 20.0986 20.7646 20.1963L22.376 21.1631C22.5127 21.2412 22.6201 21.3535 22.6982 21.5C22.7764 21.6465 22.8154 21.8027 22.8154 21.9688ZM24.0312 16.5781C24.0312 16.3242 24.124 16.1045 24.3096 15.9189C24.4951 15.7334 24.7148 15.6406 24.9688 15.6406C25.1348 15.6406 25.291 15.6846 25.4375 15.7725C25.584 15.8604 25.7012 15.9775 25.7891 16.124L26.6973 17.7646C26.7754 17.9014 26.8145 18.0479 26.8145 18.2041C26.8145 18.4678 26.7217 18.6924 26.5361 18.8779C26.3506 19.0635 26.1309 19.1562 25.877 19.1562C25.7109 19.1562 25.5547 19.1123 25.4082 19.0244C25.2617 18.9365 25.1445 18.8193 25.0566 18.6729L24.1484 17.0322C24.0703 16.8955 24.0312 16.7441 24.0312 16.5781ZM44.1875 25.7188C44.4414 25.7188 44.6611 25.8115 44.8467 25.9971C45.0322 26.1826 45.125 26.4023 45.125 26.6562C45.125 26.9102 45.0322 27.1299 44.8467 27.3154C44.6611 27.501 44.4414 27.5938 44.1875 27.5938H42.3125C42.0586 27.5938 41.8389 27.501 41.6533 27.3154C41.4678 27.1299 41.375 26.9102 41.375 26.6562C41.375 26.4023 41.4678 26.1826 41.6533 25.9971C41.8389 25.8115 42.0586 25.7188 42.3125 25.7188H44.1875ZM44.2168 33.0576C44.2168 33.3115 44.124 33.5312 43.9385 33.7168C43.7529 33.9023 43.5332 33.9951 43.2793 33.9951C43.1719 33.9951 43.0254 33.9658 42.8398 33.9072C42.6543 33.8486 42.4541 33.7705 42.2393 33.6729C42.0244 33.5752 41.8291 33.4922 41.6533 33.4238C41.4775 33.3555 41.3262 33.2871 41.1992 33.2188C41.0234 33.1406 40.8818 33.0234 40.7744 32.8672C40.667 32.7109 40.6084 32.5352 40.5986 32.3398C40.5986 32.0762 40.6914 31.8564 40.877 31.6807C41.0625 31.5049 41.2871 31.4121 41.5508 31.4023C41.668 31.4023 41.8193 31.4365 42.0049 31.5049C42.1904 31.5732 42.3857 31.6514 42.5908 31.7393C42.7959 31.8271 42.9912 31.915 43.1768 32.0029C43.3623 32.0908 43.5137 32.1543 43.6309 32.1934C43.8066 32.2715 43.9482 32.3838 44.0557 32.5303C44.1631 32.6768 44.2168 32.8525 44.2168 33.0576ZM40.2471 22.9062C39.9932 22.9062 39.7734 22.8135 39.5879 22.6279C39.4023 22.4424 39.3096 22.2227 39.3096 21.9688C39.3096 21.8027 39.3486 21.6465 39.4268 21.5C39.5049 21.3535 39.6123 21.2412 39.749 21.1631L41.3604 20.1963C41.5264 20.0986 41.6875 20.0498 41.8438 20.0498C42.0977 20.0498 42.3174 20.1426 42.5029 20.3281C42.6885 20.5137 42.7812 20.7334 42.7812 20.9873C42.7812 21.1533 42.7422 21.3047 42.6641 21.4414C42.5859 21.5781 42.4736 21.6953 42.3271 21.793L40.7305 22.7744C40.584 22.8623 40.4229 22.9062 40.2471 22.9062ZM35.3105 18.2041C35.3105 18.0479 35.3496 17.9014 35.4277 17.7646L36.3359 16.124C36.4141 15.9775 36.5264 15.8604 36.6729 15.7725C36.8193 15.6846 36.9805 15.6406 37.1562 15.6406C37.4102 15.6406 37.6299 15.7334 37.8154 15.9189C38.001 16.1045 38.0938 16.3242 38.0938 16.5781C38.0938 16.7441 38.0547 16.8955 37.9766 17.0322L37.0684 18.6729C36.9902 18.8193 36.8779 18.9365 36.7314 19.0244C36.585 19.1123 36.4238 19.1562 36.248 19.1562C35.9941 19.1562 35.7744 19.0635 35.5889 18.8779C35.4033 18.6924 35.3105 18.4678 35.3105 18.2041Z" fill="white"/>
</svg>
