<svg width="11" height="11" viewBox="0 0 11 11" fill="none" xmlns="http://www.w3.org/2000/svg">
<g clip-path="url(#clip0_480_417)">
<path d="M6.1875 4.8125L9.625 1.375M9.625 1.375H7.33333M9.625 1.375V3.66667M9.625 6.41667V8.70833C9.625 8.95145 9.52842 9.18461 9.35651 9.35651C9.18461 9.52842 8.95145 9.625 8.70833 9.625H2.29167C2.04855 9.625 1.81539 9.52842 1.64349 9.35651C1.47158 9.18461 1.375 8.95145 1.375 8.70833V2.29167C1.375 2.04855 1.47158 1.81539 1.64349 1.64349C1.81539 1.47158 2.04855 1.375 2.29167 1.375H4.58333" stroke="white" stroke-width="2" stroke-linecap="round" stroke-linejoin="round"/>
</g>
<rect x="0.5" y="0.5" width="10" height="10" stroke="#1F1C47"/>
<defs>
<clipPath id="clip0_480_417">
<rect width="11" height="11" fill="white"/>
</clipPath>
</defs>
</svg>
