<svg width="77" height="19" viewBox="0 0 77 19" fill="none" xmlns="http://www.w3.org/2000/svg">
<path d="M0.48 18L5.76 0.719999H10.632L15.912 18H12.552L7.848 2.76H8.472L3.84 18H0.48ZM3.648 14.4V11.352H12.768V14.4H3.648ZM18.0628 18V0.719999H23.6548C23.7908 0.719999 24.0708 0.724 24.4948 0.732C24.9188 0.739999 25.3268 0.767999 25.7188 0.816C27.1108 0.984 28.2908 1.468 29.2588 2.268C30.2268 3.068 30.9628 4.084 31.4668 5.316C31.9708 6.548 32.2228 7.896 32.2228 9.36C32.2228 10.824 31.9708 12.172 31.4668 13.404C30.9628 14.636 30.2268 15.652 29.2588 16.452C28.2908 17.252 27.1108 17.736 25.7188 17.904C25.3268 17.952 24.9188 17.98 24.4948 17.988C24.0708 17.996 23.7908 18 23.6548 18H18.0628ZM21.3748 14.928H23.6548C23.8708 14.928 24.1628 14.924 24.5308 14.916C24.8988 14.9 25.2308 14.864 25.5268 14.808C26.2788 14.656 26.8908 14.304 27.3628 13.752C27.8428 13.2 28.1948 12.536 28.4188 11.76C28.6508 10.984 28.7668 10.184 28.7668 9.36C28.7668 8.496 28.6468 7.676 28.4068 6.9C28.1748 6.124 27.8188 5.468 27.3388 4.932C26.8588 4.396 26.2548 4.056 25.5268 3.912C25.2308 3.848 24.8988 3.812 24.5308 3.804C24.1628 3.796 23.8708 3.792 23.6548 3.792H21.3748V14.928Z" fill="#7560F7"/>
<path d="M39.8299 18L33.5419 0.719999H34.6219L40.3579 16.536L46.1179 0.719999H47.1979L40.9099 18H39.8299ZM54.4483 18.36C53.4803 18.36 52.5963 18.224 51.7963 17.952C51.0043 17.68 50.3363 17.256 49.7923 16.68C49.3843 16.248 49.0763 15.752 48.8683 15.192C48.6603 14.632 48.5443 14.048 48.5203 13.44C48.5123 12.872 48.5923 12.296 48.7603 11.712C48.9363 11.128 49.2163 10.608 49.6003 10.152C49.8803 9.8 50.2003 9.512 50.5603 9.288C50.9283 9.064 51.3043 8.88 51.6883 8.736C51.0083 8.048 50.4843 7.428 50.1163 6.876C49.7563 6.316 49.5763 5.616 49.5763 4.776C49.5763 3.96 49.7723 3.208 50.1643 2.52C50.5563 1.824 51.1043 1.296 51.8083 0.935999C52.2163 0.727999 52.6363 0.579999 53.0683 0.491999C53.5083 0.403999 53.9443 0.36 54.3763 0.36C54.9523 0.36 55.5283 0.432 56.1043 0.576C56.6803 0.72 57.1763 0.944 57.5923 1.248C57.8803 1.44 58.1403 1.676 58.3723 1.956C58.6043 2.228 58.7923 2.52 58.9363 2.832L58.0003 3.264C57.7923 2.784 57.4563 2.384 56.9923 2.064C56.6483 1.824 56.2563 1.648 55.8163 1.536C55.3763 1.424 54.9283 1.368 54.4723 1.368C53.6803 1.368 52.9523 1.528 52.2883 1.848C51.7523 2.12 51.3443 2.508 51.0643 3.012C50.7923 3.508 50.6563 4.08 50.6563 4.728C50.6563 5.28 50.7403 5.74 50.9083 6.108C51.0763 6.468 51.3443 6.872 51.7123 7.32C51.9043 7.536 52.1123 7.744 52.3363 7.944C52.5603 8.136 52.7843 8.336 53.0083 8.544L59.2243 14.328C59.2723 14.064 59.3043 13.82 59.3203 13.596C59.3363 13.364 59.3443 13.128 59.3443 12.888L59.3203 10.08H60.4003V12.408C60.4003 13.176 60.3683 13.76 60.3043 14.16C60.2483 14.56 60.1763 14.888 60.0883 15.144L62.3683 17.256L61.6723 18L59.6083 16.056C59.4323 16.376 59.1723 16.684 58.8283 16.98C58.4843 17.268 58.1443 17.504 57.8083 17.688C57.3203 17.952 56.7843 18.128 56.2003 18.216C55.6243 18.312 55.0403 18.36 54.4483 18.36ZM54.4003 17.352C54.9923 17.352 55.5243 17.316 55.9963 17.244C56.4683 17.164 56.9123 17 57.3283 16.752C57.8323 16.44 58.1883 16.16 58.3963 15.912C58.6043 15.664 58.7603 15.456 58.8643 15.288L52.5523 9.528C52.1363 9.648 51.7403 9.816 51.3643 10.032C50.9963 10.248 50.6803 10.512 50.4163 10.824C50.1283 11.168 49.9163 11.568 49.7803 12.024C49.6523 12.472 49.5923 12.936 49.6003 13.416C49.6163 13.896 49.6963 14.356 49.8403 14.796C49.9923 15.228 50.2243 15.608 50.5363 15.936C50.9683 16.424 51.5323 16.784 52.2283 17.016C52.9323 17.24 53.6563 17.352 54.4003 17.352ZM70.0879 18.36C68.9199 18.36 67.8679 18.172 66.9319 17.796C66.0039 17.412 65.2319 16.872 64.6159 16.176C64.0079 15.48 63.5999 14.656 63.3919 13.704L64.3999 13.512C64.7119 14.696 65.3759 15.632 66.3919 16.32C67.4079 17.008 68.6399 17.352 70.0879 17.352C71.0959 17.352 71.9759 17.192 72.7279 16.872C73.4799 16.552 74.0639 16.104 74.4799 15.528C74.8959 14.944 75.1039 14.264 75.1039 13.488C75.1039 12.904 74.9959 12.416 74.7799 12.024C74.5639 11.632 74.2879 11.316 73.9519 11.076C73.6239 10.828 73.2799 10.632 72.9199 10.488C72.5599 10.344 72.2399 10.232 71.9599 10.152L67.6399 8.856C67.0159 8.672 66.4759 8.448 66.0199 8.184C65.5719 7.92 65.2039 7.62 64.9159 7.284C64.6279 6.948 64.4119 6.58 64.2679 6.18C64.1319 5.78 64.0639 5.352 64.0639 4.896C64.0639 4.016 64.2999 3.236 64.7719 2.556C65.2519 1.868 65.9159 1.332 66.7639 0.947999C67.6119 0.555999 68.5919 0.36 69.7039 0.36C70.8319 0.36 71.8439 0.567999 72.7399 0.983999C73.6359 1.4 74.3679 1.988 74.9359 2.748C75.5119 3.5 75.8719 4.384 76.0159 5.4L75.0079 5.592C74.8959 4.752 74.5999 4.016 74.1199 3.384C73.6399 2.744 73.0199 2.248 72.2599 1.896C71.4999 1.544 70.6479 1.368 69.7039 1.368C68.7999 1.368 68.0039 1.524 67.3159 1.836C66.6359 2.148 66.1039 2.568 65.7199 3.096C65.3359 3.624 65.1439 4.216 65.1439 4.872C65.1439 5.56 65.3279 6.112 65.6959 6.528C66.0719 6.936 66.5279 7.256 67.0639 7.488C67.5999 7.712 68.1119 7.896 68.5999 8.04L72.1759 9.12C72.4799 9.208 72.8519 9.34 73.2919 9.516C73.7319 9.684 74.1639 9.928 74.5879 10.248C75.0199 10.568 75.3759 10.992 75.6559 11.52C75.9439 12.04 76.0879 12.696 76.0879 13.488C76.0879 14.232 75.9479 14.904 75.6679 15.504C75.3879 16.104 74.9839 16.616 74.4559 17.04C73.9279 17.464 73.2959 17.788 72.5599 18.012C71.8239 18.244 70.9999 18.36 70.0879 18.36Z" fill="white"/>
</svg>
