<svg width="88" height="88" viewBox="0 0 88 88" fill="none" xmlns="http://www.w3.org/2000/svg">
<rect width="88" height="88" rx="20" fill="#DE8155"/>
<path d="M33.6667 60.6667C32.5208 60.6667 31.5396 60.2584 30.7229 59.4417C29.9062 58.625 29.4986 57.6445 29.5 56.5V50.25H35.75V45.5625C34.5347 45.4931 33.3799 45.2237 32.2854 44.7542C31.191 44.2848 30.1931 43.582 29.2917 42.6459V40.3542H26.8958L20.125 33.5834C21.375 31.9862 22.9201 30.8577 24.7604 30.198C26.6007 29.5382 28.4583 29.2084 30.3333 29.2084C31.2708 29.2084 32.1826 29.2778 33.0687 29.4167C33.9549 29.5556 34.8486 29.816 35.75 30.198V27.3334H60.75V54.4167C60.75 56.1528 60.1424 57.6285 58.9271 58.8438C57.7118 60.0591 56.2361 60.6667 54.5 60.6667H33.6667ZM39.9167 50.25H52.4167V54.4167C52.4167 55.007 52.6167 55.5021 53.0167 55.9021C53.4167 56.3021 53.9111 56.5014 54.5 56.5C55.0903 56.5 55.5854 56.3 55.9854 55.9C56.3854 55.5 56.5847 55.0056 56.5833 54.4167V31.5H39.9167V32.75L52.4167 45.25V48.1667H49.5L43.5625 42.2292L43.1458 42.6459C42.6597 43.132 42.1472 43.566 41.6083 43.948C41.0694 44.3299 40.5056 44.625 39.9167 44.8334V50.25ZM28.6667 36.1875H33.4583V40.6667C33.875 40.9445 34.309 41.1355 34.7604 41.2396C35.2118 41.3438 35.6806 41.3959 36.1667 41.3959C36.9653 41.3959 37.6861 41.2743 38.3292 41.0313C38.9722 40.7882 39.6056 40.3542 40.2292 39.7292L40.6458 39.3125L37.7292 36.3959C36.7222 35.3889 35.5937 34.6334 34.3437 34.1292C33.0937 33.625 31.7569 33.3737 30.3333 33.375C29.6389 33.375 28.9792 33.4271 28.3542 33.5313C27.7292 33.6355 27.1042 33.7917 26.4792 34L28.6667 36.1875Z" fill="#E8E6FE"/>
</svg>
